<svg width="1512" height="232" viewBox="0 0 1512 232" fill="none" xmlns="http://www.w3.org/2000/svg">
<g clip-path="url(#clip0_127_962)">
<rect width="1512" height="232" fill="#233BA9"/>
<circle cx="1415.5" cy="26.5" r="123.5" fill="#F16F04"/>
<circle cx="121" cy="139" r="33" fill="#F16F04"/>
<circle cx="457.5" cy="-10.5" r="48.5" fill="#F16F04"/>
<circle cx="1110" cy="33" r="18" fill="#F16F04"/>
<circle cx="13.5" cy="15.5" r="22.5" fill="#F16F04"/>
<circle cx="935.216" cy="244.216" r="54.3221" transform="rotate(-25.0569 935.216 244.216)" fill="#F16F04"/>
<path d="M358.423 92.789L345.626 134H338.701L329.695 105.842C329.448 105.158 329.22 104.322 329.011 103.334C328.897 103.809 328.783 104.255 328.669 104.673C328.555 105.091 328.431 105.481 328.298 105.842L319.207 134H312.253L299.485 92.789H305.897C306.562 92.789 307.113 92.9505 307.55 93.2735C308.006 93.5775 308.31 93.9955 308.462 94.5275L315.473 119.18C315.625 119.788 315.768 120.453 315.901 121.175C316.053 121.878 316.205 122.619 316.357 123.398C316.509 122.6 316.67 121.849 316.841 121.146C317.031 120.443 317.231 119.788 317.44 119.18L325.534 94.5275C325.686 94.0905 325.98 93.6915 326.417 93.3305C326.873 92.9695 327.424 92.789 328.07 92.789H330.322C330.987 92.789 331.528 92.9505 331.946 93.2735C332.364 93.5965 332.678 94.0145 332.887 94.5275L340.952 119.18C341.351 120.358 341.712 121.716 342.035 123.255C342.282 121.754 342.558 120.396 342.862 119.18L349.873 94.5275C349.987 94.0525 350.272 93.644 350.728 93.302C351.203 92.96 351.763 92.789 352.409 92.789H358.423ZM377.759 116.016C377.759 115.104 377.626 114.249 377.36 113.451C377.113 112.634 376.733 111.922 376.22 111.314C375.707 110.706 375.051 110.231 374.253 109.889C373.474 109.528 372.562 109.347 371.517 109.347C369.484 109.347 367.879 109.927 366.701 111.086C365.542 112.245 364.801 113.888 364.478 116.016H377.759ZM364.335 120.263C364.449 121.764 364.715 123.065 365.133 124.167C365.551 125.25 366.102 126.153 366.786 126.875C367.47 127.578 368.278 128.11 369.209 128.471C370.159 128.813 371.204 128.984 372.344 128.984C373.484 128.984 374.462 128.851 375.279 128.585C376.115 128.319 376.837 128.024 377.445 127.701C378.072 127.378 378.614 127.084 379.07 126.818C379.545 126.552 380.001 126.419 380.438 126.419C381.027 126.419 381.464 126.637 381.749 127.074L383.772 129.639C382.993 130.551 382.119 131.321 381.15 131.948C380.181 132.556 379.165 133.05 378.101 133.43C377.056 133.791 375.982 134.048 374.88 134.2C373.797 134.352 372.743 134.428 371.717 134.428C369.684 134.428 367.793 134.095 366.045 133.43C364.297 132.746 362.777 131.748 361.485 130.438C360.193 129.107 359.177 127.473 358.436 125.535C357.695 123.578 357.324 121.317 357.324 118.752C357.324 116.757 357.647 114.886 358.293 113.138C358.939 111.371 359.861 109.841 361.058 108.549C362.274 107.238 363.746 106.203 365.475 105.443C367.223 104.683 369.19 104.303 371.375 104.303C373.218 104.303 374.918 104.597 376.476 105.186C378.034 105.775 379.374 106.64 380.495 107.78C381.616 108.901 382.49 110.288 383.117 111.941C383.763 113.575 384.086 115.446 384.086 117.555C384.086 118.619 383.972 119.341 383.744 119.721C383.516 120.082 383.079 120.263 382.433 120.263H364.335ZM440.934 113.394C440.934 116.415 440.431 119.189 439.424 121.716C438.417 124.243 437.001 126.419 435.177 128.243C433.353 130.067 431.159 131.482 428.594 132.489C426.029 133.496 423.179 134 420.044 134H404.34V92.789H420.044C423.179 92.789 426.029 93.302 428.594 94.328C431.159 95.335 433.353 96.7505 435.177 98.5745C437.001 100.379 438.417 102.545 439.424 105.072C440.431 107.599 440.934 110.373 440.934 113.394ZM433.068 113.394C433.068 111.133 432.764 109.11 432.156 107.324C431.567 105.519 430.703 103.999 429.563 102.764C428.442 101.51 427.074 100.55 425.459 99.8855C423.863 99.2205 422.058 98.888 420.044 98.888H412.035V127.901H420.044C422.058 127.901 423.863 127.568 425.459 126.903C427.074 126.238 428.442 125.288 429.563 124.053C430.703 122.799 431.567 121.279 432.156 119.493C432.764 117.688 433.068 115.655 433.068 113.394ZM459.141 104.303C461.307 104.303 463.273 104.654 465.04 105.358C466.826 106.06 468.346 107.058 469.6 108.35C470.873 109.642 471.852 111.219 472.536 113.081C473.22 114.943 473.562 117.023 473.562 119.322C473.562 121.64 473.22 123.73 472.536 125.592C471.852 127.454 470.873 129.041 469.6 130.352C468.346 131.663 466.826 132.67 465.04 133.373C463.273 134.076 461.307 134.428 459.141 134.428C456.956 134.428 454.97 134.076 453.184 133.373C451.398 132.67 449.869 131.663 448.596 130.352C447.342 129.041 446.363 127.454 445.66 125.592C444.976 123.73 444.634 121.64 444.634 119.322C444.634 117.023 444.976 114.943 445.66 113.081C446.363 111.219 447.342 109.642 448.596 108.35C449.869 107.058 451.398 106.06 453.184 105.358C454.97 104.654 456.956 104.303 459.141 104.303ZM459.141 129.012C461.573 129.012 463.368 128.195 464.527 126.561C465.705 124.927 466.294 122.533 466.294 119.379C466.294 116.225 465.705 113.822 464.527 112.169C463.368 110.516 461.573 109.689 459.141 109.689C456.671 109.689 454.837 110.525 453.64 112.197C452.462 113.85 451.873 116.244 451.873 119.379C451.873 122.514 452.462 124.908 453.64 126.561C454.837 128.195 456.671 129.012 459.141 129.012ZM520.963 99.0875H508.537V134H500.871V99.0875H488.445V92.789H520.963V99.0875ZM531.783 107.894C532.923 106.83 534.177 105.965 535.545 105.3C536.913 104.635 538.519 104.303 540.362 104.303C541.958 104.303 543.373 104.578 544.608 105.129C545.843 105.661 546.869 106.421 547.686 107.409C548.522 108.378 549.149 109.547 549.567 110.915C550.004 112.264 550.223 113.755 550.223 115.389V134H543.183V115.389C543.183 113.603 542.775 112.226 541.958 111.257C541.141 110.269 539.896 109.775 538.224 109.775C537.008 109.775 535.868 110.05 534.804 110.601C533.74 111.152 532.733 111.903 531.783 112.853V134H524.744V91.649H531.783V107.894ZM564.213 104.759V134H557.145V104.759H564.213ZM565.182 96.2375C565.182 96.8455 565.059 97.4155 564.812 97.9475C564.565 98.4795 564.232 98.945 563.814 99.344C563.415 99.743 562.94 100.066 562.389 100.313C561.838 100.541 561.249 100.655 560.622 100.655C560.014 100.655 559.435 100.541 558.884 100.313C558.352 100.066 557.886 99.743 557.487 99.344C557.088 98.945 556.765 98.4795 556.518 97.9475C556.29 97.4155 556.176 96.8455 556.176 96.2375C556.176 95.6105 556.29 95.0215 556.518 94.4705C556.765 93.9195 557.088 93.4445 557.487 93.0455C557.886 92.6465 558.352 92.333 558.884 92.105C559.435 91.858 560.014 91.7345 560.622 91.7345C561.249 91.7345 561.838 91.858 562.389 92.105C562.94 92.333 563.415 92.6465 563.814 93.0455C564.232 93.4445 564.565 93.9195 564.812 94.4705C565.059 95.0215 565.182 95.6105 565.182 96.2375ZM577.974 108.35C578.563 107.761 579.18 107.219 579.826 106.725C580.491 106.212 581.185 105.785 581.907 105.443C582.648 105.082 583.436 104.806 584.272 104.616C585.108 104.407 586.02 104.303 587.008 104.303C588.604 104.303 590.02 104.578 591.255 105.129C592.49 105.661 593.516 106.421 594.333 107.409C595.169 108.378 595.796 109.547 596.214 110.915C596.651 112.264 596.869 113.755 596.869 115.389V134H589.83V115.389C589.83 113.603 589.421 112.226 588.604 111.257C587.787 110.269 586.543 109.775 584.871 109.775C583.655 109.775 582.515 110.05 581.451 110.601C580.387 111.152 579.38 111.903 578.43 112.853V134H571.39V104.759H575.694C576.606 104.759 577.204 105.186 577.489 106.041L577.974 108.35ZM614.251 118.667C615.125 118.667 615.885 118.553 616.531 118.325C617.177 118.078 617.709 117.745 618.127 117.327C618.564 116.909 618.887 116.406 619.096 115.817C619.324 115.228 619.438 114.582 619.438 113.879C619.438 112.435 619.001 111.295 618.127 110.459C617.272 109.604 615.98 109.176 614.251 109.176C612.522 109.176 611.221 109.604 610.347 110.459C609.492 111.295 609.064 112.435 609.064 113.879C609.064 114.563 609.169 115.199 609.378 115.788C609.606 116.377 609.929 116.89 610.347 117.327C610.784 117.745 611.325 118.078 611.971 118.325C612.636 118.553 613.396 118.667 614.251 118.667ZM622.203 135.311C622.203 134.741 622.032 134.276 621.69 133.914C621.348 133.553 620.882 133.278 620.293 133.088C619.704 132.879 619.011 132.727 618.213 132.632C617.434 132.537 616.598 132.47 615.705 132.432C614.831 132.375 613.919 132.328 612.969 132.29C612.038 132.252 611.126 132.176 610.233 132.062C609.454 132.499 608.817 133.012 608.323 133.601C607.848 134.19 607.611 134.874 607.611 135.653C607.611 136.166 607.734 136.641 607.981 137.078C608.247 137.534 608.656 137.924 609.207 138.247C609.777 138.57 610.508 138.817 611.401 138.988C612.294 139.178 613.387 139.273 614.679 139.273C615.99 139.273 617.12 139.168 618.07 138.959C619.02 138.769 619.799 138.494 620.407 138.133C621.034 137.791 621.49 137.373 621.775 136.879C622.06 136.404 622.203 135.881 622.203 135.311ZM629.214 105.756V108.378C629.214 109.214 628.71 109.727 627.703 109.917L625.081 110.402C625.48 111.409 625.68 112.511 625.68 113.708C625.68 115.152 625.385 116.463 624.796 117.641C624.226 118.8 623.428 119.788 622.402 120.605C621.376 121.422 620.16 122.058 618.754 122.514C617.367 122.951 615.866 123.17 614.251 123.17C613.681 123.17 613.13 123.141 612.598 123.084C612.066 123.027 611.544 122.951 611.031 122.856C610.119 123.407 609.663 124.025 609.663 124.709C609.663 125.298 609.929 125.735 610.461 126.02C611.012 126.286 611.734 126.476 612.627 126.59C613.52 126.704 614.536 126.78 615.676 126.818C616.816 126.837 617.985 126.894 619.182 126.989C620.379 127.084 621.547 127.255 622.687 127.502C623.827 127.73 624.844 128.1 625.737 128.613C626.63 129.126 627.342 129.829 627.874 130.722C628.425 131.596 628.701 132.727 628.701 134.114C628.701 135.406 628.378 136.66 627.732 137.876C627.105 139.092 626.183 140.175 624.967 141.125C623.77 142.075 622.288 142.835 620.521 143.405C618.773 143.994 616.778 144.289 614.536 144.289C612.332 144.289 610.413 144.07 608.779 143.633C607.145 143.215 605.787 142.645 604.704 141.923C603.621 141.22 602.813 140.403 602.281 139.472C601.749 138.541 601.483 137.572 601.483 136.565C601.483 135.197 601.892 134.057 602.709 133.145C603.545 132.214 604.685 131.473 606.129 130.922C605.35 130.523 604.732 129.991 604.276 129.326C603.82 128.661 603.592 127.787 603.592 126.704C603.592 126.267 603.668 125.82 603.82 125.364C603.991 124.889 604.229 124.424 604.533 123.968C604.856 123.512 605.255 123.084 605.73 122.685C606.205 122.267 606.765 121.897 607.411 121.574C605.929 120.776 604.761 119.712 603.906 118.382C603.07 117.052 602.652 115.494 602.652 113.708C602.652 112.264 602.937 110.962 603.507 109.803C604.096 108.625 604.903 107.628 605.929 106.811C606.974 105.975 608.2 105.338 609.606 104.901C611.031 104.464 612.579 104.246 614.251 104.246C615.505 104.246 616.683 104.379 617.785 104.645C618.887 104.892 619.894 105.262 620.806 105.756H629.214ZM651.519 110.459C651.329 110.763 651.13 110.981 650.921 111.114C650.712 111.228 650.446 111.285 650.123 111.285C649.781 111.285 649.41 111.19 649.011 111C648.631 110.81 648.185 110.601 647.672 110.373C647.159 110.126 646.57 109.908 645.905 109.718C645.259 109.528 644.489 109.433 643.596 109.433C642.209 109.433 641.117 109.727 640.319 110.316C639.54 110.905 639.15 111.675 639.15 112.625C639.15 113.252 639.35 113.784 639.749 114.221C640.167 114.639 640.708 115.009 641.373 115.332C642.057 115.655 642.827 115.95 643.682 116.216C644.537 116.463 645.401 116.738 646.275 117.042C647.168 117.346 648.042 117.698 648.897 118.097C649.752 118.477 650.512 118.971 651.177 119.579C651.861 120.168 652.403 120.88 652.802 121.716C653.22 122.552 653.429 123.559 653.429 124.737C653.429 126.143 653.172 127.445 652.659 128.642C652.165 129.82 651.424 130.846 650.436 131.72C649.448 132.575 648.223 133.249 646.76 133.743C645.316 134.219 643.644 134.456 641.744 134.456C640.737 134.456 639.749 134.361 638.78 134.171C637.83 134 636.908 133.753 636.015 133.43C635.141 133.107 634.324 132.727 633.564 132.29C632.823 131.853 632.168 131.378 631.598 130.865L633.222 128.186C633.431 127.863 633.678 127.616 633.963 127.445C634.248 127.274 634.609 127.188 635.046 127.188C635.483 127.188 635.892 127.312 636.272 127.559C636.671 127.806 637.127 128.072 637.64 128.357C638.153 128.642 638.751 128.908 639.435 129.155C640.138 129.402 641.022 129.525 642.086 129.525C642.922 129.525 643.634 129.43 644.223 129.24C644.831 129.031 645.325 128.765 645.705 128.442C646.104 128.119 646.389 127.749 646.56 127.331C646.75 126.894 646.845 126.447 646.845 125.991C646.845 125.307 646.636 124.747 646.218 124.31C645.819 123.873 645.278 123.493 644.594 123.17C643.929 122.847 643.159 122.562 642.285 122.315C641.43 122.049 640.547 121.764 639.635 121.46C638.742 121.156 637.858 120.804 636.984 120.405C636.129 119.987 635.36 119.465 634.676 118.838C634.011 118.211 633.469 117.441 633.051 116.529C632.652 115.617 632.453 114.515 632.453 113.223C632.453 112.026 632.69 110.886 633.165 109.803C633.64 108.72 634.334 107.78 635.246 106.982C636.177 106.165 637.326 105.519 638.694 105.044C640.081 104.55 641.677 104.303 643.482 104.303C645.496 104.303 647.33 104.635 648.983 105.3C650.636 105.965 652.013 106.839 653.115 107.922L651.519 110.459ZM688.034 121.517C686.001 121.612 684.291 121.792 682.904 122.058C681.517 122.305 680.406 122.628 679.57 123.027C678.734 123.426 678.135 123.892 677.774 124.424C677.413 124.956 677.233 125.535 677.233 126.162C677.233 127.397 677.594 128.281 678.316 128.813C679.057 129.345 680.016 129.611 681.194 129.611C682.638 129.611 683.883 129.354 684.928 128.841C685.992 128.309 687.027 127.511 688.034 126.447V121.517ZM671.903 108.834C675.266 105.756 679.313 104.217 684.044 104.217C685.754 104.217 687.284 104.502 688.633 105.072C689.982 105.623 691.122 106.402 692.053 107.409C692.984 108.397 693.687 109.585 694.162 110.972C694.656 112.359 694.903 113.879 694.903 115.532V134H691.711C691.046 134 690.533 133.905 690.172 133.715C689.811 133.506 689.526 133.097 689.317 132.489L688.69 130.38C687.949 131.045 687.227 131.634 686.524 132.147C685.821 132.641 685.089 133.059 684.329 133.401C683.569 133.743 682.752 134 681.878 134.171C681.023 134.361 680.073 134.456 679.028 134.456C677.793 134.456 676.653 134.295 675.608 133.971C674.563 133.629 673.661 133.126 672.901 132.461C672.141 131.796 671.552 130.969 671.134 129.981C670.716 128.993 670.507 127.844 670.507 126.533C670.507 125.792 670.63 125.06 670.877 124.338C671.124 123.597 671.523 122.894 672.074 122.229C672.644 121.564 673.376 120.937 674.269 120.348C675.162 119.759 676.254 119.246 677.546 118.809C678.857 118.372 680.377 118.021 682.106 117.755C683.835 117.47 685.811 117.299 688.034 117.242V115.532C688.034 113.575 687.616 112.131 686.78 111.2C685.944 110.25 684.738 109.775 683.161 109.775C682.021 109.775 681.071 109.908 680.311 110.174C679.57 110.44 678.914 110.744 678.344 111.086C677.774 111.409 677.252 111.703 676.777 111.969C676.321 112.235 675.808 112.368 675.238 112.368C674.744 112.368 674.326 112.245 673.984 111.998C673.642 111.732 673.366 111.428 673.157 111.086L671.903 108.834ZM740.644 127.673V134H716.505V92.789H724.171V127.673H740.644ZM752.302 104.759V134H745.234V104.759H752.302ZM753.271 96.2375C753.271 96.8455 753.148 97.4155 752.901 97.9475C752.654 98.4795 752.321 98.945 751.903 99.344C751.504 99.743 751.029 100.066 750.478 100.313C749.927 100.541 749.338 100.655 748.711 100.655C748.103 100.655 747.524 100.541 746.973 100.313C746.441 100.066 745.975 99.743 745.576 99.344C745.177 98.945 744.854 98.4795 744.607 97.9475C744.379 97.4155 744.265 96.8455 744.265 96.2375C744.265 95.6105 744.379 95.0215 744.607 94.4705C744.854 93.9195 745.177 93.4445 745.576 93.0455C745.975 92.6465 746.441 92.333 746.973 92.105C747.524 91.858 748.103 91.7345 748.711 91.7345C749.338 91.7345 749.927 91.858 750.478 92.105C751.029 92.333 751.504 92.6465 751.903 93.0455C752.321 93.4445 752.654 93.9195 752.901 94.4705C753.148 95.0215 753.271 95.6105 753.271 96.2375ZM769.226 134.456C766.68 134.456 764.723 133.743 763.355 132.318C762.006 130.874 761.331 128.889 761.331 126.362V110.031H758.339C757.959 110.031 757.636 109.908 757.37 109.661C757.104 109.414 756.971 109.043 756.971 108.549V105.756L761.673 104.987L763.155 97.007C763.25 96.627 763.431 96.3325 763.697 96.1235C763.963 95.9145 764.305 95.81 764.723 95.81H768.371V105.015H780.54L782.051 97.007C782.146 96.627 782.317 96.3325 782.564 96.1235C782.83 95.9145 783.181 95.81 783.618 95.81H787.238V105.015H795.047V110.031H787.238V125.877C787.238 126.789 787.466 127.502 787.922 128.015C788.378 128.528 788.995 128.784 789.774 128.784C790.192 128.784 790.553 128.737 790.857 128.642C791.161 128.528 791.418 128.414 791.627 128.3C791.855 128.186 792.054 128.081 792.225 127.986C792.396 127.872 792.567 127.815 792.738 127.815C792.947 127.815 793.118 127.872 793.251 127.986C793.384 128.081 793.527 128.233 793.679 128.442L795.788 131.862C794.762 132.717 793.584 133.363 792.254 133.8C790.924 134.238 789.546 134.456 788.121 134.456C785.575 134.456 783.618 133.743 782.25 132.318C780.882 130.874 780.198 128.889 780.198 126.362V110.031H768.371V125.877C768.371 126.789 768.589 127.502 769.026 128.015C769.482 128.528 770.1 128.784 770.879 128.784C771.316 128.784 771.677 128.737 771.962 128.642C772.266 128.528 772.522 128.414 772.731 128.3C772.959 128.186 773.159 128.081 773.33 127.986C773.501 127.872 773.672 127.815 773.843 127.815C774.052 127.815 774.223 127.872 774.356 127.986C774.489 128.081 774.631 128.233 774.783 128.442L776.892 131.862C775.866 132.717 774.688 133.363 773.358 133.8C772.028 134.238 770.651 134.456 769.226 134.456ZM806.682 91.649V134H799.643V91.649H806.682ZM832.534 116.016C832.534 115.104 832.401 114.249 832.135 113.451C831.888 112.634 831.508 111.922 830.995 111.314C830.482 110.706 829.827 110.231 829.029 109.889C828.25 109.528 827.338 109.347 826.293 109.347C824.26 109.347 822.654 109.927 821.476 111.086C820.317 112.245 819.576 113.888 819.253 116.016H832.534ZM819.111 120.263C819.225 121.764 819.491 123.065 819.909 124.167C820.327 125.25 820.878 126.153 821.562 126.875C822.246 127.578 823.053 128.11 823.984 128.471C824.934 128.813 825.979 128.984 827.119 128.984C828.259 128.984 829.238 128.851 830.055 128.585C830.891 128.319 831.613 128.024 832.221 127.701C832.848 127.378 833.389 127.084 833.845 126.818C834.32 126.552 834.776 126.419 835.213 126.419C835.802 126.419 836.239 126.637 836.524 127.074L838.548 129.639C837.769 130.551 836.895 131.321 835.926 131.948C834.957 132.556 833.94 133.05 832.876 133.43C831.831 133.791 830.758 134.048 829.656 134.2C828.573 134.352 827.518 134.428 826.492 134.428C824.459 134.428 822.569 134.095 820.821 133.43C819.073 132.746 817.553 131.748 816.261 130.438C814.969 129.107 813.952 127.473 813.211 125.535C812.47 123.578 812.1 121.317 812.1 118.752C812.1 116.757 812.423 114.886 813.069 113.138C813.715 111.371 814.636 109.841 815.833 108.549C817.049 107.238 818.522 106.203 820.251 105.443C821.999 104.683 823.965 104.303 826.15 104.303C827.993 104.303 829.694 104.597 831.252 105.186C832.81 105.775 834.149 106.64 835.27 107.78C836.391 108.901 837.265 110.288 837.892 111.941C838.538 113.575 838.861 115.446 838.861 117.555C838.861 118.619 838.747 119.341 838.519 119.721C838.291 120.082 837.854 120.263 837.208 120.263H819.111ZM895.71 113.394C895.71 116.415 895.206 119.189 894.199 121.716C893.192 124.243 891.777 126.419 889.953 128.243C888.129 130.067 885.934 131.482 883.369 132.489C880.804 133.496 877.954 134 874.819 134H859.116V92.789H874.819C877.954 92.789 880.804 93.302 883.369 94.328C885.934 95.335 888.129 96.7505 889.953 98.5745C891.777 100.379 893.192 102.545 894.199 105.072C895.206 107.599 895.71 110.373 895.71 113.394ZM887.844 113.394C887.844 111.133 887.54 109.11 886.932 107.324C886.343 105.519 885.478 103.999 884.338 102.764C883.217 101.51 881.849 100.55 880.234 99.8855C878.638 99.2205 876.833 98.888 874.819 98.888H866.811V127.901H874.819C876.833 127.901 878.638 127.568 880.234 126.903C881.849 126.238 883.217 125.288 884.338 124.053C885.478 122.799 886.343 121.279 886.932 119.493C887.54 117.688 887.844 115.655 887.844 113.394ZM908.162 104.759V134H901.094V104.759H908.162ZM909.131 96.2375C909.131 96.8455 909.007 97.4155 908.76 97.9475C908.513 98.4795 908.181 98.945 907.763 99.344C907.364 99.743 906.889 100.066 906.338 100.313C905.787 100.541 905.198 100.655 904.571 100.655C903.963 100.655 903.383 100.541 902.832 100.313C902.3 100.066 901.835 99.743 901.436 99.344C901.037 98.945 900.714 98.4795 900.467 97.9475C900.239 97.4155 900.125 96.8455 900.125 96.2375C900.125 95.6105 900.239 95.0215 900.467 94.4705C900.714 93.9195 901.037 93.4445 901.436 93.0455C901.835 92.6465 902.3 92.333 902.832 92.105C903.383 91.858 903.963 91.7345 904.571 91.7345C905.198 91.7345 905.787 91.858 906.338 92.105C906.889 92.333 907.364 92.6465 907.763 93.0455C908.181 93.4445 908.513 93.9195 908.76 94.4705C909.007 95.0215 909.131 95.6105 909.131 96.2375ZM917.39 134V110.06L914.854 109.661C914.303 109.547 913.856 109.357 913.514 109.091C913.191 108.806 913.03 108.407 913.03 107.894V105.015H917.39V103.362C917.39 101.69 917.637 100.189 918.131 98.8595C918.644 97.5295 919.366 96.399 920.297 95.468C921.247 94.537 922.397 93.8245 923.746 93.3305C925.095 92.8365 926.615 92.5895 928.306 92.5895C929.655 92.5895 930.909 92.77 932.068 93.131L931.925 96.6365C931.906 96.9025 931.83 97.121 931.697 97.292C931.564 97.463 931.384 97.596 931.156 97.691C930.947 97.767 930.7 97.824 930.415 97.862C930.13 97.881 929.826 97.8905 929.503 97.8905C928.667 97.8905 927.916 97.9855 927.251 98.1755C926.605 98.3465 926.054 98.66 925.598 99.116C925.142 99.553 924.791 100.142 924.544 100.883C924.316 101.605 924.202 102.507 924.202 103.59V105.015H935.858V102.422C935.858 100.75 936.105 99.249 936.599 97.919C937.112 96.589 937.834 95.4585 938.765 94.5275C939.715 93.5965 940.865 92.884 942.214 92.39C943.563 91.896 945.083 91.649 946.774 91.649C947.439 91.649 948.075 91.6965 948.683 91.7915C949.31 91.8675 949.928 91.991 950.536 92.162L950.365 95.696C950.327 96.247 950.07 96.5985 949.595 96.7505C949.139 96.8835 948.598 96.95 947.971 96.95C947.135 96.95 946.384 97.045 945.719 97.235C945.073 97.406 944.522 97.7195 944.066 98.1755C943.61 98.6125 943.259 99.2015 943.012 99.9425C942.784 100.664 942.67 101.567 942.67 102.65V105.015H950.251V110.031H942.898V134H935.858V110.031H924.43V134H917.39ZM972.307 116.016C972.307 115.104 972.174 114.249 971.908 113.451C971.661 112.634 971.281 111.922 970.768 111.314C970.255 110.706 969.599 110.231 968.801 109.889C968.022 109.528 967.11 109.347 966.065 109.347C964.032 109.347 962.427 109.927 961.249 111.086C960.09 112.245 959.349 113.888 959.026 116.016H972.307ZM958.883 120.263C958.997 121.764 959.263 123.065 959.681 124.167C960.099 125.25 960.65 126.153 961.334 126.875C962.018 127.578 962.826 128.11 963.757 128.471C964.707 128.813 965.752 128.984 966.892 128.984C968.032 128.984 969.01 128.851 969.827 128.585C970.663 128.319 971.385 128.024 971.993 127.701C972.62 127.378 973.162 127.084 973.618 126.818C974.093 126.552 974.549 126.419 974.986 126.419C975.575 126.419 976.012 126.637 976.297 127.074L978.32 129.639C977.541 130.551 976.667 131.321 975.698 131.948C974.729 132.556 973.713 133.05 972.649 133.43C971.604 133.791 970.53 134.048 969.428 134.2C968.345 134.352 967.291 134.428 966.265 134.428C964.232 134.428 962.341 134.095 960.593 133.43C958.845 132.746 957.325 131.748 956.033 130.438C954.741 129.107 953.725 127.473 952.984 125.535C952.243 123.578 951.872 121.317 951.872 118.752C951.872 116.757 952.195 114.886 952.841 113.138C953.487 111.371 954.409 109.841 955.606 108.549C956.822 107.238 958.294 106.203 960.023 105.443C961.771 104.683 963.738 104.303 965.923 104.303C967.766 104.303 969.466 104.597 971.024 105.186C972.582 105.775 973.922 106.64 975.043 107.78C976.164 108.901 977.038 110.288 977.665 111.941C978.311 113.575 978.634 115.446 978.634 117.555C978.634 118.619 978.52 119.341 978.292 119.721C978.064 120.082 977.627 120.263 976.981 120.263H958.883ZM990.557 109.832C991.469 108.084 992.552 106.716 993.806 105.728C995.06 104.721 996.542 104.217 998.252 104.217C999.601 104.217 1000.68 104.512 1001.5 105.101L1001.04 110.373C1000.95 110.715 1000.81 110.962 1000.62 111.114C1000.45 111.247 1000.21 111.314 999.905 111.314C999.62 111.314 999.192 111.266 998.622 111.171C998.071 111.076 997.53 111.029 996.998 111.029C996.219 111.029 995.525 111.143 994.917 111.371C994.309 111.599 993.758 111.931 993.264 112.368C992.789 112.786 992.362 113.299 991.982 113.907C991.621 114.515 991.279 115.209 990.956 115.988V134H983.916V104.759H988.049C988.771 104.759 989.274 104.892 989.559 105.158C989.844 105.405 990.034 105.861 990.129 106.526L990.557 109.832ZM1023.18 116.016C1023.18 115.104 1023.05 114.249 1022.78 113.451C1022.54 112.634 1022.16 111.922 1021.64 111.314C1021.13 110.706 1020.48 110.231 1019.68 109.889C1018.9 109.528 1017.99 109.347 1016.94 109.347C1014.91 109.347 1013.3 109.927 1012.13 111.086C1010.97 112.245 1010.23 113.888 1009.9 116.016H1023.18ZM1009.76 120.263C1009.87 121.764 1010.14 123.065 1010.56 124.167C1010.98 125.25 1011.53 126.153 1012.21 126.875C1012.9 127.578 1013.7 128.11 1014.63 128.471C1015.58 128.813 1016.63 128.984 1017.77 128.984C1018.91 128.984 1019.89 128.851 1020.7 128.585C1021.54 128.319 1022.26 128.024 1022.87 127.701C1023.5 127.378 1024.04 127.084 1024.49 126.818C1024.97 126.552 1025.43 126.419 1025.86 126.419C1026.45 126.419 1026.89 126.637 1027.17 127.074L1029.2 129.639C1028.42 130.551 1027.54 131.321 1026.58 131.948C1025.61 132.556 1024.59 133.05 1023.53 133.43C1022.48 133.791 1021.41 134.048 1020.31 134.2C1019.22 134.352 1018.17 134.428 1017.14 134.428C1015.11 134.428 1013.22 134.095 1011.47 133.43C1009.72 132.746 1008.2 131.748 1006.91 130.438C1005.62 129.107 1004.6 127.473 1003.86 125.535C1003.12 123.578 1002.75 121.317 1002.75 118.752C1002.75 116.757 1003.07 114.886 1003.72 113.138C1004.36 111.371 1005.29 109.841 1006.48 108.549C1007.7 107.238 1009.17 106.203 1010.9 105.443C1012.65 104.683 1014.61 104.303 1016.8 104.303C1018.64 104.303 1020.34 104.597 1021.9 105.186C1023.46 105.775 1024.8 106.64 1025.92 107.78C1027.04 108.901 1027.91 110.288 1028.54 111.941C1029.19 113.575 1029.51 115.446 1029.51 117.555C1029.51 118.619 1029.4 119.341 1029.17 119.721C1028.94 120.082 1028.5 120.263 1027.86 120.263H1009.76ZM1041.38 108.35C1041.97 107.761 1042.58 107.219 1043.23 106.725C1043.89 106.212 1044.59 105.785 1045.31 105.443C1046.05 105.082 1046.84 104.806 1047.68 104.616C1048.51 104.407 1049.42 104.303 1050.41 104.303C1052.01 104.303 1053.42 104.578 1054.66 105.129C1055.89 105.661 1056.92 106.421 1057.74 107.409C1058.57 108.378 1059.2 109.547 1059.62 110.915C1060.05 112.264 1060.27 113.755 1060.27 115.389V134H1053.23V115.389C1053.23 113.603 1052.82 112.226 1052.01 111.257C1051.19 110.269 1049.95 109.775 1048.27 109.775C1047.06 109.775 1045.92 110.05 1044.85 110.601C1043.79 111.152 1042.78 111.903 1041.83 112.853V134H1034.79V104.759H1039.1C1040.01 104.759 1040.61 105.186 1040.89 106.041L1041.38 108.35ZM1076.32 134.456C1073.78 134.456 1071.82 133.743 1070.45 132.318C1069.1 130.874 1068.43 128.889 1068.43 126.362V110.031H1065.44C1065.06 110.031 1064.73 109.908 1064.47 109.661C1064.2 109.414 1064.07 109.043 1064.07 108.549V105.756L1068.77 104.987L1070.25 97.007C1070.35 96.627 1070.53 96.3325 1070.8 96.1235C1071.06 95.9145 1071.4 95.81 1071.82 95.81H1075.47V105.015H1083.28V110.031H1075.47V125.877C1075.47 126.789 1075.69 127.502 1076.13 128.015C1076.58 128.528 1077.2 128.784 1077.98 128.784C1078.41 128.784 1078.78 128.737 1079.06 128.642C1079.36 128.528 1079.62 128.414 1079.83 128.3C1080.06 128.186 1080.26 128.081 1080.43 127.986C1080.6 127.872 1080.77 127.815 1080.94 127.815C1081.15 127.815 1081.32 127.872 1081.45 127.986C1081.59 128.081 1081.73 128.233 1081.88 128.442L1083.99 131.862C1082.97 132.717 1081.79 133.363 1080.46 133.8C1079.13 134.238 1077.75 134.456 1076.32 134.456ZM1094.91 91.649V134H1087.87V91.649H1094.91ZM1128.49 104.759L1112.55 142.037C1112.35 142.531 1112.07 142.902 1111.73 143.149C1111.41 143.415 1110.9 143.548 1110.22 143.548H1104.97L1110.45 131.805L1098.62 104.759H1104.8C1105.35 104.759 1105.78 104.892 1106.09 105.158C1106.41 105.424 1106.65 105.728 1106.8 106.07L1113.01 121.232C1113.22 121.745 1113.39 122.258 1113.52 122.771C1113.68 123.284 1113.82 123.806 1113.95 124.338C1114.12 123.806 1114.29 123.284 1114.46 122.771C1114.64 122.239 1114.83 121.716 1115.03 121.203L1120.91 106.07C1121.06 105.69 1121.3 105.376 1121.65 105.129C1122.01 104.882 1122.41 104.759 1122.84 104.759H1128.49ZM1128.9 130.124C1128.9 129.535 1129 128.974 1129.21 128.442C1129.44 127.91 1129.74 127.454 1130.12 127.074C1130.5 126.694 1130.96 126.39 1131.49 126.162C1132.02 125.934 1132.59 125.82 1133.2 125.82C1133.81 125.82 1134.37 125.934 1134.88 126.162C1135.41 126.39 1135.87 126.694 1136.25 127.074C1136.65 127.454 1136.96 127.91 1137.19 128.442C1137.42 128.974 1137.53 129.535 1137.53 130.124C1137.53 130.732 1137.42 131.302 1137.19 131.834C1136.96 132.347 1136.65 132.793 1136.25 133.173C1135.87 133.553 1135.41 133.848 1134.88 134.057C1134.37 134.285 1133.81 134.399 1133.2 134.399C1132.59 134.399 1132.02 134.285 1131.49 134.057C1130.96 133.848 1130.5 133.553 1130.12 133.173C1129.74 132.793 1129.44 132.347 1129.21 131.834C1129 131.302 1128.9 130.732 1128.9 130.124Z" fill="#F2F2F2"/>
<circle cx="345" cy="184" r="12" fill="#F16F04"/>
</g>
<defs>
<clipPath id="clip0_127_962">
<rect width="1512" height="232" fill="white"/>
</clipPath>
</defs>
</svg>
