<svg width="1512" height="232" viewBox="0 0 1512 232" fill="none" xmlns="http://www.w3.org/2000/svg">
<g clip-path="url(#clip0_127_855)">
<rect width="1512" height="232" transform="translate(0.203125)" fill="#233BA9"/>
<circle cx="1415.7" cy="26.5" r="123.5" fill="#F16F04"/>
<circle cx="121.203" cy="139" r="33" fill="#F16F04"/>
<circle cx="457.703" cy="-10.5" r="48.5" fill="#F16F04"/>
<circle cx="1110.2" cy="33" r="18" fill="#F16F04"/>
<circle cx="13.7031" cy="15.5" r="22.5" fill="#F16F04"/>
<circle cx="935.419" cy="244.216" r="54.3221" transform="rotate(-25.0569 935.419 244.216)" fill="#F16F04"/>
<path d="M233.764 113.337V130.01C231.674 131.549 229.441 132.679 227.066 133.401C224.71 134.104 222.183 134.456 219.485 134.456C216.122 134.456 213.073 133.934 210.337 132.888C207.62 131.843 205.292 130.39 203.354 128.528C201.435 126.666 199.953 124.443 198.908 121.859C197.863 119.275 197.341 116.453 197.341 113.394C197.341 110.297 197.844 107.457 198.851 104.873C199.858 102.289 201.283 100.066 203.126 98.204C204.988 96.342 207.24 94.898 209.881 93.872C212.522 92.846 215.486 92.333 218.773 92.333C220.445 92.333 222.003 92.466 223.447 92.732C224.91 92.998 226.259 93.3685 227.494 93.8435C228.748 94.2995 229.888 94.86 230.914 95.525C231.94 96.19 232.88 96.9215 233.735 97.7195L231.541 101.196C231.199 101.747 230.752 102.089 230.201 102.222C229.65 102.336 229.052 102.194 228.406 101.795C227.779 101.434 227.152 101.073 226.525 100.712C225.898 100.351 225.195 100.037 224.416 99.7715C223.656 99.5055 222.791 99.287 221.822 99.116C220.872 98.945 219.77 98.8595 218.516 98.8595C216.483 98.8595 214.64 99.2015 212.987 99.8855C211.353 100.569 209.957 101.548 208.798 102.821C207.639 104.094 206.746 105.623 206.119 107.409C205.492 109.195 205.178 111.19 205.178 113.394C205.178 115.75 205.511 117.859 206.176 119.721C206.86 121.564 207.81 123.132 209.026 124.424C210.261 125.697 211.743 126.675 213.472 127.359C215.201 128.024 217.129 128.357 219.257 128.357C220.777 128.357 222.136 128.195 223.333 127.872C224.53 127.549 225.698 127.112 226.838 126.561V119.094H221.651C221.157 119.094 220.768 118.961 220.483 118.695C220.217 118.41 220.084 118.068 220.084 117.669V113.337H233.764ZM258.543 116.016C258.543 115.104 258.41 114.249 258.144 113.451C257.897 112.634 257.517 111.922 257.004 111.314C256.491 110.706 255.836 110.231 255.038 109.889C254.259 109.528 253.347 109.347 252.302 109.347C250.269 109.347 248.663 109.927 247.485 111.086C246.326 112.245 245.585 113.888 245.262 116.016H258.543ZM245.12 120.263C245.234 121.764 245.5 123.065 245.918 124.167C246.336 125.25 246.887 126.153 247.571 126.875C248.255 127.578 249.062 128.11 249.993 128.471C250.943 128.813 251.988 128.984 253.128 128.984C254.268 128.984 255.247 128.851 256.064 128.585C256.9 128.319 257.622 128.024 258.23 127.701C258.857 127.378 259.398 127.084 259.854 126.818C260.329 126.552 260.785 126.419 261.222 126.419C261.811 126.419 262.248 126.637 262.533 127.074L264.557 129.639C263.778 130.551 262.904 131.321 261.935 131.948C260.966 132.556 259.949 133.05 258.885 133.43C257.84 133.791 256.767 134.048 255.665 134.2C254.582 134.352 253.527 134.428 252.501 134.428C250.468 134.428 248.578 134.095 246.83 133.43C245.082 132.746 243.562 131.748 242.27 130.438C240.978 129.107 239.961 127.473 239.22 125.535C238.479 123.578 238.109 121.317 238.109 118.752C238.109 116.757 238.432 114.886 239.078 113.138C239.724 111.371 240.645 109.841 241.842 108.549C243.058 107.238 244.531 106.203 246.26 105.443C248.008 104.683 249.974 104.303 252.159 104.303C254.002 104.303 255.703 104.597 257.261 105.186C258.819 105.775 260.158 106.64 261.279 107.78C262.4 108.901 263.274 110.288 263.901 111.941C264.547 113.575 264.87 115.446 264.87 117.555C264.87 118.619 264.756 119.341 264.528 119.721C264.3 120.082 263.863 120.263 263.217 120.263H245.12ZM279.621 134.456C277.075 134.456 275.118 133.743 273.75 132.318C272.401 130.874 271.727 128.889 271.727 126.362V110.031H268.734C268.354 110.031 268.031 109.908 267.765 109.661C267.499 109.414 267.366 109.043 267.366 108.549V105.756L272.069 104.987L273.551 97.007C273.646 96.627 273.826 96.3325 274.092 96.1235C274.358 95.9145 274.7 95.81 275.118 95.81H278.766V105.015H286.575V110.031H278.766V125.877C278.766 126.789 278.985 127.502 279.422 128.015C279.878 128.528 280.495 128.784 281.274 128.784C281.711 128.784 282.072 128.737 282.357 128.642C282.661 128.528 282.918 128.414 283.127 128.3C283.355 128.186 283.554 128.081 283.725 127.986C283.896 127.872 284.067 127.815 284.238 127.815C284.447 127.815 284.618 127.872 284.751 127.986C284.884 128.081 285.027 128.233 285.179 128.442L287.288 131.862C286.262 132.717 285.084 133.363 283.754 133.8C282.424 134.238 281.046 134.456 279.621 134.456ZM312.239 104.759V134H305.171V104.759H312.239ZM313.208 96.2375C313.208 96.8455 313.084 97.4155 312.837 97.9475C312.59 98.4795 312.258 98.945 311.84 99.344C311.441 99.743 310.966 100.066 310.415 100.313C309.864 100.541 309.275 100.655 308.648 100.655C308.04 100.655 307.46 100.541 306.909 100.313C306.377 100.066 305.912 99.743 305.513 99.344C305.114 98.945 304.791 98.4795 304.544 97.9475C304.316 97.4155 304.202 96.8455 304.202 96.2375C304.202 95.6105 304.316 95.0215 304.544 94.4705C304.791 93.9195 305.114 93.4445 305.513 93.0455C305.912 92.6465 306.377 92.333 306.909 92.105C307.46 91.858 308.04 91.7345 308.648 91.7345C309.275 91.7345 309.864 91.858 310.415 92.105C310.966 92.333 311.441 92.6465 311.84 93.0455C312.258 93.4445 312.59 93.9195 312.837 94.4705C313.084 95.0215 313.208 95.6105 313.208 96.2375ZM325.999 108.35C326.588 107.761 327.205 107.219 327.851 106.725C328.516 106.212 329.21 105.785 329.932 105.443C330.673 105.082 331.461 104.806 332.297 104.616C333.133 104.407 334.045 104.303 335.033 104.303C336.629 104.303 338.045 104.578 339.28 105.129C340.515 105.661 341.541 106.421 342.358 107.409C343.194 108.378 343.821 109.547 344.239 110.915C344.676 112.264 344.894 113.755 344.894 115.389V134H337.855V115.389C337.855 113.603 337.446 112.226 336.629 111.257C335.812 110.269 334.568 109.775 332.896 109.775C331.68 109.775 330.54 110.05 329.476 110.601C328.412 111.152 327.405 111.903 326.455 112.853V134H319.415V104.759H323.719C324.631 104.759 325.229 105.186 325.514 106.041L325.999 108.35ZM375.197 134.456C372.651 134.456 370.694 133.743 369.326 132.318C367.977 130.874 367.302 128.889 367.302 126.362V110.031H364.31C363.93 110.031 363.607 109.908 363.341 109.661C363.075 109.414 362.942 109.043 362.942 108.549V105.756L367.644 104.987L369.126 97.007C369.221 96.627 369.402 96.3325 369.668 96.1235C369.934 95.9145 370.276 95.81 370.694 95.81H374.342V105.015H382.151V110.031H374.342V125.877C374.342 126.789 374.56 127.502 374.997 128.015C375.453 128.528 376.071 128.784 376.85 128.784C377.287 128.784 377.648 128.737 377.933 128.642C378.237 128.528 378.493 128.414 378.702 128.3C378.93 128.186 379.13 128.081 379.301 127.986C379.472 127.872 379.643 127.815 379.814 127.815C380.023 127.815 380.194 127.872 380.327 127.986C380.46 128.081 380.602 128.233 380.754 128.442L382.863 131.862C381.837 132.717 380.659 133.363 379.329 133.8C377.999 134.238 376.622 134.456 375.197 134.456ZM399.374 104.303C401.54 104.303 403.507 104.654 405.274 105.358C407.06 106.06 408.58 107.058 409.834 108.35C411.107 109.642 412.085 111.219 412.769 113.081C413.453 114.943 413.795 117.023 413.795 119.322C413.795 121.64 413.453 123.73 412.769 125.592C412.085 127.454 411.107 129.041 409.834 130.352C408.58 131.663 407.06 132.67 405.274 133.373C403.507 134.076 401.54 134.428 399.374 134.428C397.189 134.428 395.204 134.076 393.418 133.373C391.632 132.67 390.102 131.663 388.829 130.352C387.575 129.041 386.597 127.454 385.894 125.592C385.21 123.73 384.868 121.64 384.868 119.322C384.868 117.023 385.21 114.943 385.894 113.081C386.597 111.219 387.575 109.642 388.829 108.35C390.102 107.058 391.632 106.06 393.418 105.358C395.204 104.654 397.189 104.303 399.374 104.303ZM399.374 129.012C401.806 129.012 403.602 128.195 404.761 126.561C405.939 124.927 406.528 122.533 406.528 119.379C406.528 116.225 405.939 113.822 404.761 112.169C403.602 110.516 401.806 109.689 399.374 109.689C396.904 109.689 395.071 110.525 393.874 112.197C392.696 113.85 392.107 116.244 392.107 119.379C392.107 122.514 392.696 124.908 393.874 126.561C395.071 128.195 396.904 129.012 399.374 129.012ZM444.359 104.759V134H440.056C439.125 134 438.536 133.572 438.289 132.717L437.804 130.38C436.607 131.596 435.287 132.584 433.843 133.344C432.399 134.085 430.698 134.456 428.741 134.456C427.145 134.456 425.73 134.19 424.495 133.658C423.279 133.107 422.253 132.337 421.417 131.349C420.581 130.361 419.944 129.193 419.507 127.844C419.089 126.476 418.88 124.975 418.88 123.341V104.759H425.92V123.341C425.92 125.127 426.328 126.514 427.145 127.502C427.981 128.471 429.226 128.955 430.879 128.955C432.095 128.955 433.235 128.689 434.299 128.157C435.363 127.606 436.37 126.856 437.32 125.906V104.759H444.359ZM472.287 110.943C472.078 111.209 471.869 111.418 471.66 111.57C471.47 111.722 471.185 111.798 470.805 111.798C470.444 111.798 470.092 111.694 469.75 111.485C469.408 111.257 469 111.01 468.525 110.744C468.05 110.459 467.48 110.212 466.815 110.003C466.169 109.775 465.361 109.661 464.392 109.661C463.157 109.661 462.074 109.889 461.143 110.345C460.212 110.782 459.433 111.418 458.806 112.254C458.198 113.09 457.742 114.107 457.438 115.304C457.134 116.482 456.982 117.821 456.982 119.322C456.982 120.88 457.144 122.267 457.467 123.483C457.809 124.699 458.293 125.725 458.92 126.561C459.547 127.378 460.307 128.005 461.2 128.442C462.093 128.86 463.1 129.069 464.221 129.069C465.342 129.069 466.245 128.936 466.929 128.67C467.632 128.385 468.221 128.081 468.696 127.758C469.171 127.416 469.579 127.112 469.921 126.846C470.282 126.561 470.681 126.419 471.118 126.419C471.688 126.419 472.116 126.637 472.401 127.074L474.424 129.639C473.645 130.551 472.8 131.321 471.888 131.948C470.976 132.556 470.026 133.05 469.038 133.43C468.069 133.791 467.062 134.048 466.017 134.2C464.991 134.352 463.965 134.428 462.939 134.428C461.134 134.428 459.433 134.095 457.837 133.43C456.241 132.746 454.845 131.758 453.648 130.466C452.451 129.174 451.501 127.597 450.798 125.735C450.114 123.854 449.772 121.716 449.772 119.322C449.772 117.175 450.076 115.19 450.684 113.366C451.311 111.523 452.223 109.936 453.42 108.606C454.617 107.257 456.099 106.203 457.866 105.443C459.633 104.683 461.666 104.303 463.965 104.303C466.15 104.303 468.059 104.654 469.693 105.358C471.346 106.06 472.828 107.067 474.139 108.378L472.287 110.943ZM485.877 107.894C487.017 106.83 488.271 105.965 489.639 105.3C491.007 104.635 492.612 104.303 494.455 104.303C496.051 104.303 497.467 104.578 498.702 105.129C499.937 105.661 500.963 106.421 501.78 107.409C502.616 108.378 503.243 109.547 503.661 110.915C504.098 112.264 504.316 113.755 504.316 115.389V134H497.277V115.389C497.277 113.603 496.868 112.226 496.051 111.257C495.234 110.269 493.99 109.775 492.318 109.775C491.102 109.775 489.962 110.05 488.898 110.601C487.834 111.152 486.827 111.903 485.877 112.853V134H478.837V91.649H485.877V107.894ZM565.455 104.759L556.164 134H550.521C549.875 134 549.429 133.582 549.182 132.746L543.938 115.845C543.767 115.275 543.605 114.715 543.453 114.164C543.32 113.594 543.206 113.024 543.111 112.454C542.997 113.024 542.864 113.603 542.712 114.192C542.579 114.762 542.427 115.332 542.256 115.902L536.927 132.746C536.699 133.582 536.195 134 535.416 134H530.001L520.739 104.759H526.353C526.866 104.759 527.303 104.882 527.664 105.129C528.025 105.376 528.263 105.69 528.377 106.07L532.566 121.688C532.775 122.543 532.956 123.379 533.108 124.196C533.279 125.013 533.421 125.83 533.535 126.647C533.744 125.83 533.963 125.013 534.191 124.196C534.438 123.379 534.694 122.543 534.96 121.688L539.805 106.013C539.919 105.633 540.138 105.319 540.461 105.072C540.803 104.825 541.211 104.702 541.686 104.702H544.793C545.287 104.702 545.705 104.825 546.047 105.072C546.408 105.319 546.645 105.633 546.759 106.013L551.462 121.688C551.709 122.543 551.937 123.388 552.146 124.224C552.374 125.041 552.592 125.858 552.801 126.676C553.048 125.06 553.4 123.398 553.856 121.688L558.159 106.07C558.292 105.69 558.53 105.376 558.872 105.129C559.214 104.882 559.622 104.759 560.097 104.759H565.455ZM576.754 104.759V134H569.686V104.759H576.754ZM577.723 96.2375C577.723 96.8455 577.6 97.4155 577.353 97.9475C577.106 98.4795 576.773 98.945 576.355 99.344C575.956 99.743 575.481 100.066 574.93 100.313C574.379 100.541 573.79 100.655 573.163 100.655C572.555 100.655 571.976 100.541 571.425 100.313C570.893 100.066 570.427 99.743 570.028 99.344C569.629 98.945 569.306 98.4795 569.059 97.9475C568.831 97.4155 568.717 96.8455 568.717 96.2375C568.717 95.6105 568.831 95.0215 569.059 94.4705C569.306 93.9195 569.629 93.4445 570.028 93.0455C570.427 92.6465 570.893 92.333 571.425 92.105C571.976 91.858 572.555 91.7345 573.163 91.7345C573.79 91.7345 574.379 91.858 574.93 92.105C575.481 92.333 575.956 92.6465 576.355 93.0455C576.773 93.4445 577.106 93.9195 577.353 94.4705C577.6 95.0215 577.723 95.6105 577.723 96.2375ZM593.678 134.456C591.132 134.456 589.175 133.743 587.807 132.318C586.458 130.874 585.784 128.889 585.784 126.362V110.031H582.791C582.411 110.031 582.088 109.908 581.822 109.661C581.556 109.414 581.423 109.043 581.423 108.549V105.756L586.126 104.987L587.608 97.007C587.703 96.627 587.883 96.3325 588.149 96.1235C588.415 95.9145 588.757 95.81 589.175 95.81H592.823V105.015H600.632V110.031H592.823V125.877C592.823 126.789 593.042 127.502 593.479 128.015C593.935 128.528 594.552 128.784 595.331 128.784C595.768 128.784 596.129 128.737 596.414 128.642C596.718 128.528 596.975 128.414 597.184 128.3C597.412 128.186 597.611 128.081 597.782 127.986C597.953 127.872 598.124 127.815 598.295 127.815C598.504 127.815 598.675 127.872 598.808 127.986C598.941 128.081 599.084 128.233 599.236 128.442L601.345 131.862C600.319 132.717 599.141 133.363 597.811 133.8C596.481 134.238 595.103 134.456 593.678 134.456ZM612.179 107.894C613.319 106.83 614.573 105.965 615.941 105.3C617.309 104.635 618.914 104.303 620.757 104.303C622.353 104.303 623.769 104.578 625.004 105.129C626.239 105.661 627.265 106.421 628.082 107.409C628.918 108.378 629.545 109.547 629.963 110.915C630.4 112.264 630.618 113.755 630.618 115.389V134H623.579V115.389C623.579 113.603 623.17 112.226 622.353 111.257C621.536 110.269 620.292 109.775 618.62 109.775C617.404 109.775 616.264 110.05 615.2 110.601C614.136 111.152 613.129 111.903 612.179 112.853V134H605.139V91.649H612.179V107.894ZM676.367 104.759V134H672.064C671.133 134 670.544 133.572 670.297 132.717L669.812 130.38C668.615 131.596 667.295 132.584 665.851 133.344C664.407 134.085 662.706 134.456 660.749 134.456C659.153 134.456 657.738 134.19 656.503 133.658C655.287 133.107 654.261 132.337 653.425 131.349C652.589 130.361 651.952 129.193 651.515 127.844C651.097 126.476 650.888 124.975 650.888 123.341V104.759H657.928V123.341C657.928 125.127 658.336 126.514 659.153 127.502C659.989 128.471 661.234 128.955 662.887 128.955C664.103 128.955 665.243 128.689 666.307 128.157C667.371 127.606 668.378 126.856 669.328 125.906V104.759H676.367ZM701.188 110.459C700.998 110.763 700.799 110.981 700.59 111.114C700.381 111.228 700.115 111.285 699.792 111.285C699.45 111.285 699.079 111.19 698.68 111C698.3 110.81 697.854 110.601 697.341 110.373C696.828 110.126 696.239 109.908 695.574 109.718C694.928 109.528 694.158 109.433 693.265 109.433C691.878 109.433 690.786 109.727 689.988 110.316C689.209 110.905 688.819 111.675 688.819 112.625C688.819 113.252 689.019 113.784 689.418 114.221C689.836 114.639 690.377 115.009 691.042 115.332C691.726 115.655 692.496 115.95 693.351 116.216C694.206 116.463 695.07 116.738 695.944 117.042C696.837 117.346 697.711 117.698 698.566 118.097C699.421 118.477 700.181 118.971 700.846 119.579C701.53 120.168 702.072 120.88 702.471 121.716C702.889 122.552 703.098 123.559 703.098 124.737C703.098 126.143 702.841 127.445 702.328 128.642C701.834 129.82 701.093 130.846 700.105 131.72C699.117 132.575 697.892 133.249 696.429 133.743C694.985 134.219 693.313 134.456 691.413 134.456C690.406 134.456 689.418 134.361 688.449 134.171C687.499 134 686.577 133.753 685.684 133.43C684.81 133.107 683.993 132.727 683.233 132.29C682.492 131.853 681.837 131.378 681.267 130.865L682.891 128.186C683.1 127.863 683.347 127.616 683.632 127.445C683.917 127.274 684.278 127.188 684.715 127.188C685.152 127.188 685.561 127.312 685.941 127.559C686.34 127.806 686.796 128.072 687.309 128.357C687.822 128.642 688.42 128.908 689.104 129.155C689.807 129.402 690.691 129.525 691.755 129.525C692.591 129.525 693.303 129.43 693.892 129.24C694.5 129.031 694.994 128.765 695.374 128.442C695.773 128.119 696.058 127.749 696.229 127.331C696.419 126.894 696.514 126.447 696.514 125.991C696.514 125.307 696.305 124.747 695.887 124.31C695.488 123.873 694.947 123.493 694.263 123.17C693.598 122.847 692.828 122.562 691.954 122.315C691.099 122.049 690.216 121.764 689.304 121.46C688.411 121.156 687.527 120.804 686.653 120.405C685.798 119.987 685.029 119.465 684.345 118.838C683.68 118.211 683.138 117.441 682.72 116.529C682.321 115.617 682.122 114.515 682.122 113.223C682.122 112.026 682.359 110.886 682.834 109.803C683.309 108.72 684.003 107.78 684.915 106.982C685.846 106.165 686.995 105.519 688.363 105.044C689.75 104.55 691.346 104.303 693.151 104.303C695.165 104.303 696.999 104.635 698.652 105.3C700.305 105.965 701.682 106.839 702.784 107.922L701.188 110.459ZM707.37 130.124C707.37 129.535 707.474 128.974 707.683 128.442C707.911 127.91 708.215 127.454 708.595 127.074C708.975 126.694 709.431 126.39 709.963 126.162C710.495 125.934 711.065 125.82 711.673 125.82C712.281 125.82 712.842 125.934 713.355 126.162C713.887 126.39 714.343 126.694 714.723 127.074C715.122 127.454 715.435 127.91 715.663 128.442C715.891 128.974 716.005 129.535 716.005 130.124C716.005 130.732 715.891 131.302 715.663 131.834C715.435 132.347 715.122 132.793 714.723 133.173C714.343 133.553 713.887 133.848 713.355 134.057C712.842 134.285 712.281 134.399 711.673 134.399C711.065 134.399 710.495 134.285 709.963 134.057C709.431 133.848 708.975 133.553 708.595 133.173C708.215 132.793 707.911 132.347 707.683 131.834C707.474 131.302 707.37 130.732 707.37 130.124ZM791.339 92.789L778.542 134H771.617L762.611 105.842C762.364 105.158 762.136 104.322 761.927 103.334C761.813 103.809 761.699 104.255 761.585 104.673C761.471 105.091 761.347 105.481 761.214 105.842L752.123 134H745.169L732.401 92.789H738.813C739.478 92.789 740.029 92.9505 740.466 93.2735C740.922 93.5775 741.226 93.9955 741.378 94.5275L748.389 119.18C748.541 119.788 748.684 120.453 748.817 121.175C748.969 121.878 749.121 122.619 749.273 123.398C749.425 122.6 749.586 121.849 749.757 121.146C749.947 120.443 750.147 119.788 750.356 119.18L758.45 94.5275C758.602 94.0905 758.896 93.6915 759.333 93.3305C759.789 92.9695 760.34 92.789 760.986 92.789H763.238C763.903 92.789 764.444 92.9505 764.862 93.2735C765.28 93.5965 765.594 94.0145 765.803 94.5275L773.868 119.18C774.267 120.358 774.628 121.716 774.951 123.255C775.198 121.754 775.474 120.396 775.778 119.18L782.789 94.5275C782.903 94.0525 783.188 93.644 783.644 93.302C784.119 92.96 784.679 92.789 785.325 92.789H791.339ZM810.675 116.016C810.675 115.104 810.542 114.249 810.276 113.451C810.029 112.634 809.649 111.922 809.136 111.314C808.623 110.706 807.967 110.231 807.169 109.889C806.39 109.528 805.478 109.347 804.433 109.347C802.4 109.347 800.795 109.927 799.617 111.086C798.458 112.245 797.717 113.888 797.394 116.016H810.675ZM797.251 120.263C797.365 121.764 797.631 123.065 798.049 124.167C798.467 125.25 799.018 126.153 799.702 126.875C800.386 127.578 801.194 128.11 802.125 128.471C803.075 128.813 804.12 128.984 805.26 128.984C806.4 128.984 807.378 128.851 808.195 128.585C809.031 128.319 809.753 128.024 810.361 127.701C810.988 127.378 811.53 127.084 811.986 126.818C812.461 126.552 812.917 126.419 813.354 126.419C813.943 126.419 814.38 126.637 814.665 127.074L816.688 129.639C815.909 130.551 815.035 131.321 814.066 131.948C813.097 132.556 812.081 133.05 811.017 133.43C809.972 133.791 808.898 134.048 807.796 134.2C806.713 134.352 805.659 134.428 804.633 134.428C802.6 134.428 800.709 134.095 798.961 133.43C797.213 132.746 795.693 131.748 794.401 130.438C793.109 129.107 792.093 127.473 791.352 125.535C790.611 123.578 790.24 121.317 790.24 118.752C790.24 116.757 790.563 114.886 791.209 113.138C791.855 111.371 792.777 109.841 793.974 108.549C795.19 107.238 796.662 106.203 798.391 105.443C800.139 104.683 802.106 104.303 804.291 104.303C806.134 104.303 807.834 104.597 809.392 105.186C810.95 105.775 812.29 106.64 813.411 107.78C814.532 108.901 815.406 110.288 816.033 111.941C816.679 113.575 817.002 115.446 817.002 117.555C817.002 118.619 816.888 119.341 816.66 119.721C816.432 120.082 815.995 120.263 815.349 120.263H797.251ZM851.592 121.517C849.559 121.612 847.849 121.792 846.462 122.058C845.075 122.305 843.963 122.628 843.127 123.027C842.291 123.426 841.693 123.892 841.332 124.424C840.971 124.956 840.79 125.535 840.79 126.162C840.79 127.397 841.151 128.281 841.873 128.813C842.614 129.345 843.574 129.611 844.752 129.611C846.196 129.611 847.44 129.354 848.485 128.841C849.549 128.309 850.585 127.511 851.592 126.447V121.517ZM835.461 108.834C838.824 105.756 842.871 104.217 847.602 104.217C849.312 104.217 850.841 104.502 852.19 105.072C853.539 105.623 854.679 106.402 855.61 107.409C856.541 108.397 857.244 109.585 857.719 110.972C858.213 112.359 858.46 113.879 858.46 115.532V134H855.268C854.603 134 854.09 133.905 853.729 133.715C853.368 133.506 853.083 133.097 852.874 132.489L852.247 130.38C851.506 131.045 850.784 131.634 850.081 132.147C849.378 132.641 848.647 133.059 847.887 133.401C847.127 133.743 846.31 134 845.436 134.171C844.581 134.361 843.631 134.456 842.586 134.456C841.351 134.456 840.211 134.295 839.166 133.971C838.121 133.629 837.218 133.126 836.458 132.461C835.698 131.796 835.109 130.969 834.691 129.981C834.273 128.993 834.064 127.844 834.064 126.533C834.064 125.792 834.188 125.06 834.435 124.338C834.682 123.597 835.081 122.894 835.632 122.229C836.202 121.564 836.933 120.937 837.826 120.348C838.719 119.759 839.812 119.246 841.104 118.809C842.415 118.372 843.935 118.021 845.664 117.755C847.393 117.47 849.369 117.299 851.592 117.242V115.532C851.592 113.575 851.174 112.131 850.338 111.2C849.502 110.25 848.295 109.775 846.718 109.775C845.578 109.775 844.628 109.908 843.868 110.174C843.127 110.44 842.472 110.744 841.902 111.086C841.332 111.409 840.809 111.703 840.334 111.969C839.878 112.235 839.365 112.368 838.795 112.368C838.301 112.368 837.883 112.245 837.541 111.998C837.199 111.732 836.924 111.428 836.715 111.086L835.461 108.834ZM871.731 109.832C872.643 108.084 873.726 106.716 874.98 105.728C876.234 104.721 877.716 104.217 879.426 104.217C880.775 104.217 881.858 104.512 882.675 105.101L882.219 110.373C882.124 110.715 881.981 110.962 881.791 111.114C881.62 111.247 881.383 111.314 881.079 111.314C880.794 111.314 880.366 111.266 879.796 111.171C879.245 111.076 878.704 111.029 878.172 111.029C877.393 111.029 876.699 111.143 876.091 111.371C875.483 111.599 874.932 111.931 874.438 112.368C873.963 112.786 873.536 113.299 873.156 113.907C872.795 114.515 872.453 115.209 872.13 115.988V134H865.09V104.759H869.223C869.945 104.759 870.448 104.892 870.733 105.158C871.018 105.405 871.208 105.861 871.303 106.526L871.731 109.832ZM904.357 116.016C904.357 115.104 904.224 114.249 903.958 113.451C903.711 112.634 903.331 111.922 902.818 111.314C902.305 110.706 901.65 110.231 900.852 109.889C900.073 109.528 899.161 109.347 898.116 109.347C896.083 109.347 894.477 109.927 893.299 111.086C892.14 112.245 891.399 113.888 891.076 116.016H904.357ZM890.934 120.263C891.048 121.764 891.314 123.065 891.732 124.167C892.15 125.25 892.701 126.153 893.385 126.875C894.069 127.578 894.876 128.11 895.807 128.471C896.757 128.813 897.802 128.984 898.942 128.984C900.082 128.984 901.061 128.851 901.878 128.585C902.714 128.319 903.436 128.024 904.044 127.701C904.671 127.378 905.212 127.084 905.668 126.818C906.143 126.552 906.599 126.419 907.036 126.419C907.625 126.419 908.062 126.637 908.347 127.074L910.371 129.639C909.592 130.551 908.718 131.321 907.749 131.948C906.78 132.556 905.763 133.05 904.699 133.43C903.654 133.791 902.581 134.048 901.479 134.2C900.396 134.352 899.341 134.428 898.315 134.428C896.282 134.428 894.392 134.095 892.644 133.43C890.896 132.746 889.376 131.748 888.084 130.438C886.792 129.107 885.775 127.473 885.034 125.535C884.293 123.578 883.923 121.317 883.923 118.752C883.923 116.757 884.246 114.886 884.892 113.138C885.538 111.371 886.459 109.841 887.656 108.549C888.872 107.238 890.345 106.203 892.074 105.443C893.822 104.683 895.788 104.303 897.973 104.303C899.816 104.303 901.517 104.597 903.075 105.186C904.633 105.775 905.972 106.64 907.093 107.78C908.214 108.901 909.088 110.288 909.715 111.941C910.361 113.575 910.684 115.446 910.684 117.555C910.684 118.619 910.57 119.341 910.342 119.721C910.114 120.082 909.677 120.263 909.031 120.263H890.934ZM936.867 107.894C938.007 106.83 939.261 105.965 940.629 105.3C941.997 104.635 943.603 104.303 945.446 104.303C947.042 104.303 948.457 104.578 949.692 105.129C950.927 105.661 951.953 106.421 952.77 107.409C953.606 108.378 954.233 109.547 954.651 110.915C955.088 112.264 955.307 113.755 955.307 115.389V134H948.267V115.389C948.267 113.603 947.859 112.226 947.042 111.257C946.225 110.269 944.98 109.775 943.308 109.775C942.092 109.775 940.952 110.05 939.888 110.601C938.824 111.152 937.817 111.903 936.867 112.853V134H929.828V91.649H936.867V107.894ZM980.84 116.016C980.84 115.104 980.707 114.249 980.441 113.451C980.194 112.634 979.814 111.922 979.301 111.314C978.788 110.706 978.132 110.231 977.334 109.889C976.555 109.528 975.643 109.347 974.598 109.347C972.565 109.347 970.96 109.927 969.782 111.086C968.623 112.245 967.882 113.888 967.559 116.016H980.84ZM967.416 120.263C967.53 121.764 967.796 123.065 968.214 124.167C968.632 125.25 969.183 126.153 969.867 126.875C970.551 127.578 971.359 128.11 972.29 128.471C973.24 128.813 974.285 128.984 975.425 128.984C976.565 128.984 977.543 128.851 978.36 128.585C979.196 128.319 979.918 128.024 980.526 127.701C981.153 127.378 981.695 127.084 982.151 126.818C982.626 126.552 983.082 126.419 983.519 126.419C984.108 126.419 984.545 126.637 984.83 127.074L986.853 129.639C986.074 130.551 985.2 131.321 984.231 131.948C983.262 132.556 982.246 133.05 981.182 133.43C980.137 133.791 979.063 134.048 977.961 134.2C976.878 134.352 975.824 134.428 974.798 134.428C972.765 134.428 970.874 134.095 969.126 133.43C967.378 132.746 965.858 131.748 964.566 130.438C963.274 129.107 962.258 127.473 961.517 125.535C960.776 123.578 960.405 121.317 960.405 118.752C960.405 116.757 960.728 114.886 961.374 113.138C962.02 111.371 962.942 109.841 964.139 108.549C965.355 107.238 966.827 106.203 968.556 105.443C970.304 104.683 972.271 104.303 974.456 104.303C976.299 104.303 977.999 104.597 979.557 105.186C981.115 105.775 982.455 106.64 983.576 107.78C984.697 108.901 985.571 110.288 986.198 111.941C986.844 113.575 987.167 115.446 987.167 117.555C987.167 118.619 987.053 119.341 986.825 119.721C986.597 120.082 986.16 120.263 985.514 120.263H967.416ZM999.09 109.832C1000 108.084 1001.09 106.716 1002.34 105.728C1003.59 104.721 1005.08 104.217 1006.79 104.217C1008.13 104.217 1009.22 104.512 1010.03 105.101L1009.58 110.373C1009.48 110.715 1009.34 110.962 1009.15 111.114C1008.98 111.247 1008.74 111.314 1008.44 111.314C1008.15 111.314 1007.73 111.266 1007.16 111.171C1006.6 111.076 1006.06 111.029 1005.53 111.029C1004.75 111.029 1004.06 111.143 1003.45 111.371C1002.84 111.599 1002.29 111.931 1001.8 112.368C1001.32 112.786 1000.9 113.299 1000.52 113.907C1000.15 114.515 999.812 115.209 999.489 115.988V134H992.45V104.759H996.582C997.304 104.759 997.808 104.892 998.093 105.158C998.378 105.405 998.568 105.861 998.663 106.526L999.09 109.832ZM1031.72 116.016C1031.72 115.104 1031.58 114.249 1031.32 113.451C1031.07 112.634 1030.69 111.922 1030.18 111.314C1029.66 110.706 1029.01 110.231 1028.21 109.889C1027.43 109.528 1026.52 109.347 1025.48 109.347C1023.44 109.347 1021.84 109.927 1020.66 111.086C1019.5 112.245 1018.76 113.888 1018.44 116.016H1031.72ZM1018.29 120.263C1018.41 121.764 1018.67 123.065 1019.09 124.167C1019.51 125.25 1020.06 126.153 1020.74 126.875C1021.43 127.578 1022.24 128.11 1023.17 128.471C1024.12 128.813 1025.16 128.984 1026.3 128.984C1027.44 128.984 1028.42 128.851 1029.24 128.585C1030.07 128.319 1030.8 128.024 1031.4 127.701C1032.03 127.378 1032.57 127.084 1033.03 126.818C1033.5 126.552 1033.96 126.419 1034.4 126.419C1034.98 126.419 1035.42 126.637 1035.71 127.074L1037.73 129.639C1036.95 130.551 1036.08 131.321 1035.11 131.948C1034.14 132.556 1033.12 133.05 1032.06 133.43C1031.01 133.791 1029.94 134.048 1028.84 134.2C1027.76 134.352 1026.7 134.428 1025.67 134.428C1023.64 134.428 1021.75 134.095 1020 133.43C1018.26 132.746 1016.74 131.748 1015.44 130.438C1014.15 129.107 1013.13 127.473 1012.39 125.535C1011.65 123.578 1011.28 121.317 1011.28 118.752C1011.28 116.757 1011.61 114.886 1012.25 113.138C1012.9 111.371 1013.82 109.841 1015.02 108.549C1016.23 107.238 1017.7 106.203 1019.43 105.443C1021.18 104.683 1023.15 104.303 1025.33 104.303C1027.18 104.303 1028.88 104.597 1030.43 105.186C1031.99 105.775 1033.33 106.64 1034.45 107.78C1035.57 108.901 1036.45 110.288 1037.07 111.941C1037.72 113.575 1038.04 115.446 1038.04 117.555C1038.04 118.619 1037.93 119.341 1037.7 119.721C1037.47 120.082 1037.04 120.263 1036.39 120.263H1018.29ZM1066.93 134.456C1064.39 134.456 1062.43 133.743 1061.06 132.318C1059.71 130.874 1059.04 128.889 1059.04 126.362V110.031H1056.05C1055.67 110.031 1055.34 109.908 1055.08 109.661C1054.81 109.414 1054.68 109.043 1054.68 108.549V105.756L1059.38 104.987L1060.86 97.007C1060.96 96.627 1061.14 96.3325 1061.4 96.1235C1061.67 95.9145 1062.01 95.81 1062.43 95.81H1066.08V105.015H1073.89V110.031H1066.08V125.877C1066.08 126.789 1066.3 127.502 1066.73 128.015C1067.19 128.528 1067.81 128.784 1068.59 128.784C1069.02 128.784 1069.38 128.737 1069.67 128.642C1069.97 128.528 1070.23 128.414 1070.44 128.3C1070.67 128.186 1070.87 128.081 1071.04 127.986C1071.21 127.872 1071.38 127.815 1071.55 127.815C1071.76 127.815 1071.93 127.872 1072.06 127.986C1072.2 128.081 1072.34 128.233 1072.49 128.442L1074.6 131.862C1073.57 132.717 1072.4 133.363 1071.07 133.8C1069.74 134.238 1068.36 134.456 1066.93 134.456ZM1091.11 104.303C1093.28 104.303 1095.24 104.654 1097.01 105.358C1098.8 106.06 1100.32 107.058 1101.57 108.35C1102.84 109.642 1103.82 111.219 1104.51 113.081C1105.19 114.943 1105.53 117.023 1105.53 119.322C1105.53 121.64 1105.19 123.73 1104.51 125.592C1103.82 127.454 1102.84 129.041 1101.57 130.352C1100.32 131.663 1098.8 132.67 1097.01 133.373C1095.24 134.076 1093.28 134.428 1091.11 134.428C1088.93 134.428 1086.94 134.076 1085.15 133.373C1083.37 132.67 1081.84 131.663 1080.57 130.352C1079.31 129.041 1078.33 127.454 1077.63 125.592C1076.95 123.73 1076.6 121.64 1076.6 119.322C1076.6 117.023 1076.95 114.943 1077.63 113.081C1078.33 111.219 1079.31 109.642 1080.57 108.35C1081.84 107.058 1083.37 106.06 1085.15 105.358C1086.94 104.654 1088.93 104.303 1091.11 104.303ZM1091.11 129.012C1093.54 129.012 1095.34 128.195 1096.5 126.561C1097.68 124.927 1098.26 122.533 1098.26 119.379C1098.26 116.225 1097.68 113.822 1096.5 112.169C1095.34 110.516 1093.54 109.689 1091.11 109.689C1088.64 109.689 1086.81 110.525 1085.61 112.197C1084.43 113.85 1083.84 116.244 1083.84 119.379C1083.84 122.514 1084.43 124.908 1085.61 126.561C1086.81 128.195 1088.64 129.012 1091.11 129.012ZM1131.8 107.894C1132.94 106.83 1134.2 105.965 1135.56 105.3C1136.93 104.635 1138.54 104.303 1140.38 104.303C1141.98 104.303 1143.39 104.578 1144.63 105.129C1145.86 105.661 1146.89 106.421 1147.71 107.409C1148.54 108.378 1149.17 109.547 1149.59 110.915C1150.02 112.264 1150.24 113.755 1150.24 115.389V134H1143.2V115.389C1143.2 113.603 1142.79 112.226 1141.98 111.257C1141.16 110.269 1139.92 109.775 1138.24 109.775C1137.03 109.775 1135.89 110.05 1134.82 110.601C1133.76 111.152 1132.75 111.903 1131.8 112.853V134H1124.76V91.649H1131.8V107.894ZM1175.78 116.016C1175.78 115.104 1175.64 114.249 1175.38 113.451C1175.13 112.634 1174.75 111.922 1174.24 111.314C1173.72 110.706 1173.07 110.231 1172.27 109.889C1171.49 109.528 1170.58 109.347 1169.53 109.347C1167.5 109.347 1165.9 109.927 1164.72 111.086C1163.56 112.245 1162.82 113.888 1162.49 116.016H1175.78ZM1162.35 120.263C1162.47 121.764 1162.73 123.065 1163.15 124.167C1163.57 125.25 1164.12 126.153 1164.8 126.875C1165.49 127.578 1166.29 128.11 1167.23 128.471C1168.18 128.813 1169.22 128.984 1170.36 128.984C1171.5 128.984 1172.48 128.851 1173.3 128.585C1174.13 128.319 1174.85 128.024 1175.46 127.701C1176.09 127.378 1176.63 127.084 1177.09 126.818C1177.56 126.552 1178.02 126.419 1178.45 126.419C1179.04 126.419 1179.48 126.637 1179.77 127.074L1181.79 129.639C1181.01 130.551 1180.14 131.321 1179.17 131.948C1178.2 132.556 1177.18 133.05 1176.12 133.43C1175.07 133.791 1174 134.048 1172.9 134.2C1171.81 134.352 1170.76 134.428 1169.73 134.428C1167.7 134.428 1165.81 134.095 1164.06 133.43C1162.31 132.746 1160.79 131.748 1159.5 130.438C1158.21 129.107 1157.19 127.473 1156.45 125.535C1155.71 123.578 1155.34 121.317 1155.34 118.752C1155.34 116.757 1155.66 114.886 1156.31 113.138C1156.96 111.371 1157.88 109.841 1159.07 108.549C1160.29 107.238 1161.76 106.203 1163.49 105.443C1165.24 104.683 1167.21 104.303 1169.39 104.303C1171.23 104.303 1172.93 104.597 1174.49 105.186C1176.05 105.775 1177.39 106.64 1178.51 107.78C1179.63 108.901 1180.51 110.288 1181.13 111.941C1181.78 113.575 1182.1 115.446 1182.1 117.555C1182.1 118.619 1181.99 119.341 1181.76 119.721C1181.53 120.082 1181.1 120.263 1180.45 120.263H1162.35ZM1194.51 91.649V134H1187.47V91.649H1194.51ZM1208.56 126.419C1209.36 127.388 1210.23 128.072 1211.16 128.471C1212.11 128.87 1213.13 129.069 1214.23 129.069C1215.3 129.069 1216.26 128.87 1217.11 128.471C1217.97 128.072 1218.69 127.464 1219.28 126.647C1219.89 125.83 1220.35 124.804 1220.68 123.569C1221 122.315 1221.16 120.842 1221.16 119.151C1221.16 117.441 1221.02 115.997 1220.73 114.819C1220.47 113.622 1220.08 112.653 1219.56 111.912C1219.05 111.171 1218.42 110.63 1217.68 110.288C1216.96 109.946 1216.13 109.775 1215.2 109.775C1213.74 109.775 1212.5 110.088 1211.47 110.715C1210.44 111.323 1209.48 112.188 1208.56 113.309V126.419ZM1208.19 108.749C1209.39 107.4 1210.75 106.307 1212.27 105.471C1213.79 104.635 1215.57 104.217 1217.63 104.217C1219.22 104.217 1220.68 104.55 1221.99 105.215C1223.32 105.88 1224.46 106.849 1225.41 108.122C1226.38 109.376 1227.12 110.934 1227.63 112.796C1228.16 114.639 1228.43 116.757 1228.43 119.151C1228.43 121.336 1228.13 123.36 1227.54 125.222C1226.96 127.084 1226.11 128.699 1225.01 130.067C1223.92 131.435 1222.6 132.509 1221.05 133.287C1219.51 134.048 1217.78 134.428 1215.86 134.428C1214.23 134.428 1212.83 134.181 1211.67 133.686C1210.51 133.173 1209.48 132.47 1208.56 131.577V143.548H1201.52V104.759H1205.83C1206.74 104.759 1207.34 105.186 1207.62 106.041L1208.19 108.749ZM1232.89 130.124C1232.89 129.535 1233 128.974 1233.21 128.442C1233.44 127.91 1233.74 127.454 1234.12 127.074C1234.5 126.694 1234.96 126.39 1235.49 126.162C1236.02 125.934 1236.59 125.82 1237.2 125.82C1237.81 125.82 1238.37 125.934 1238.88 126.162C1239.41 126.39 1239.87 126.694 1240.25 127.074C1240.65 127.454 1240.96 127.91 1241.19 128.442C1241.42 128.974 1241.53 129.535 1241.53 130.124C1241.53 130.732 1241.42 131.302 1241.19 131.834C1240.96 132.347 1240.65 132.793 1240.25 133.173C1239.87 133.553 1239.41 133.848 1238.88 134.057C1238.37 134.285 1237.81 134.399 1237.2 134.399C1236.59 134.399 1236.02 134.285 1235.49 134.057C1234.96 133.848 1234.5 133.553 1234.12 133.173C1233.74 132.793 1233.44 132.347 1233.21 131.834C1233 131.302 1232.89 130.732 1232.89 130.124Z" fill="#F2F2F2"/>
<circle cx="345.203" cy="184" r="12" fill="#F16F04"/>
</g>
<defs>
<clipPath id="clip0_127_855">
<rect width="1512" height="232" fill="white" transform="translate(0.203125)"/>
</clipPath>
</defs>
</svg>
