<svg width="1512" height="232" viewBox="0 0 1512 232" fill="none" xmlns="http://www.w3.org/2000/svg">
<g clip-path="url(#clip0_220_152)">
<rect width="1512" height="232" fill="#233BA9"/>
<circle cx="1415.5" cy="26.5" r="123.5" fill="#F16F04"/>
<circle cx="121" cy="139" r="33" fill="#F16F04"/>
<circle cx="457.5" cy="-10.5" r="48.5" fill="#F16F04"/>
<circle cx="1110" cy="33" r="18" fill="#F16F04"/>
<circle cx="13.5" cy="15.5" r="22.5" fill="#F16F04"/>
<circle cx="935.216" cy="244.216" r="54.3221" transform="rotate(-25.0569 935.216 244.216)" fill="#F16F04"/>
<path d="M411.284 98.888V111.086H426.731V117.213H411.284V134H403.589V92.789H429.581V98.888H411.284ZM439.12 109.832C440.032 108.084 441.115 106.716 442.369 105.728C443.623 104.721 445.105 104.217 446.815 104.217C448.164 104.217 449.247 104.512 450.064 105.101L449.608 110.373C449.513 110.715 449.371 110.962 449.181 111.114C449.01 111.247 448.772 111.314 448.468 111.314C448.183 111.314 447.756 111.266 447.186 111.171C446.635 111.076 446.093 111.029 445.561 111.029C444.782 111.029 444.089 111.143 443.481 111.371C442.873 111.599 442.322 111.931 441.828 112.368C441.353 112.786 440.925 113.299 440.545 113.907C440.184 114.515 439.842 115.209 439.519 115.988V134H432.48V104.759H436.612C437.334 104.759 437.838 104.892 438.123 105.158C438.408 105.405 438.598 105.861 438.693 106.526L439.12 109.832ZM471.747 116.016C471.747 115.104 471.614 114.249 471.348 113.451C471.101 112.634 470.721 111.922 470.208 111.314C469.695 110.706 469.04 110.231 468.242 109.889C467.463 109.528 466.551 109.347 465.506 109.347C463.473 109.347 461.867 109.927 460.689 111.086C459.53 112.245 458.789 113.888 458.466 116.016H471.747ZM458.324 120.263C458.438 121.764 458.704 123.065 459.122 124.167C459.54 125.25 460.091 126.153 460.775 126.875C461.459 127.578 462.266 128.11 463.197 128.471C464.147 128.813 465.192 128.984 466.332 128.984C467.472 128.984 468.451 128.851 469.268 128.585C470.104 128.319 470.826 128.024 471.434 127.701C472.061 127.378 472.602 127.084 473.058 126.818C473.533 126.552 473.989 126.419 474.426 126.419C475.015 126.419 475.452 126.637 475.737 127.074L477.761 129.639C476.982 130.551 476.108 131.321 475.139 131.948C474.17 132.556 473.153 133.05 472.089 133.43C471.044 133.791 469.971 134.048 468.869 134.2C467.786 134.352 466.731 134.428 465.705 134.428C463.672 134.428 461.782 134.095 460.034 133.43C458.286 132.746 456.766 131.748 455.474 130.438C454.182 129.107 453.165 127.473 452.424 125.535C451.683 123.578 451.313 121.317 451.313 118.752C451.313 116.757 451.636 114.886 452.282 113.138C452.928 111.371 453.849 109.841 455.046 108.549C456.262 107.238 457.735 106.203 459.464 105.443C461.212 104.683 463.178 104.303 465.363 104.303C467.206 104.303 468.907 104.597 470.465 105.186C472.023 105.775 473.362 106.64 474.483 107.78C475.604 108.901 476.478 110.288 477.105 111.941C477.751 113.575 478.074 115.446 478.074 117.555C478.074 118.619 477.96 119.341 477.732 119.721C477.504 120.082 477.067 120.263 476.421 120.263H458.324ZM501.711 112.226C500.932 111.257 500.067 110.573 499.117 110.174C498.167 109.775 497.151 109.575 496.068 109.575C495.004 109.575 494.044 109.775 493.189 110.174C492.334 110.573 491.603 111.181 490.995 111.998C490.387 112.796 489.921 113.822 489.598 115.076C489.275 116.311 489.114 117.774 489.114 119.465C489.114 121.175 489.247 122.628 489.513 123.825C489.798 125.003 490.197 125.972 490.71 126.732C491.223 127.473 491.85 128.015 492.591 128.357C493.332 128.68 494.158 128.841 495.07 128.841C496.533 128.841 497.778 128.537 498.804 127.929C499.83 127.321 500.799 126.457 501.711 125.336V112.226ZM508.75 104.759V143.548H501.711V130.295C500.552 131.53 499.241 132.527 497.778 133.287C496.315 134.048 494.614 134.428 492.676 134.428C491.08 134.428 489.617 134.095 488.287 133.43C486.957 132.765 485.808 131.805 484.839 130.551C483.889 129.278 483.148 127.711 482.616 125.849C482.103 123.987 481.846 121.859 481.846 119.465C481.846 117.299 482.141 115.285 482.73 113.423C483.319 111.561 484.164 109.946 485.266 108.578C486.368 107.21 487.689 106.146 489.228 105.386C490.767 104.607 492.496 104.217 494.415 104.217C496.239 104.217 497.768 104.531 499.003 105.158C500.238 105.785 501.34 106.63 502.309 107.694L502.68 106.041C502.927 105.186 503.516 104.759 504.447 104.759H508.75ZM540.892 104.759V134H536.588C535.657 134 535.068 133.572 534.821 132.717L534.337 130.38C533.14 131.596 531.819 132.584 530.375 133.344C528.931 134.085 527.231 134.456 525.274 134.456C523.678 134.456 522.262 134.19 521.027 133.658C519.811 133.107 518.785 132.337 517.949 131.349C517.113 130.361 516.477 129.193 516.04 127.844C515.622 126.476 515.413 124.975 515.413 123.341V104.759H522.452V123.341C522.452 125.127 522.861 126.514 523.678 127.502C524.514 128.471 525.758 128.955 527.411 128.955C528.627 128.955 529.767 128.689 530.831 128.157C531.895 127.606 532.902 126.856 533.852 125.906V104.759H540.892ZM566.71 116.016C566.71 115.104 566.577 114.249 566.311 113.451C566.064 112.634 565.684 111.922 565.171 111.314C564.658 110.706 564.003 110.231 563.205 109.889C562.426 109.528 561.514 109.347 560.469 109.347C558.436 109.347 556.83 109.927 555.652 111.086C554.493 112.245 553.752 113.888 553.429 116.016H566.71ZM553.287 120.263C553.401 121.764 553.667 123.065 554.085 124.167C554.503 125.25 555.054 126.153 555.738 126.875C556.422 127.578 557.229 128.11 558.16 128.471C559.11 128.813 560.155 128.984 561.295 128.984C562.435 128.984 563.414 128.851 564.231 128.585C565.067 128.319 565.789 128.024 566.397 127.701C567.024 127.378 567.565 127.084 568.021 126.818C568.496 126.552 568.952 126.419 569.389 126.419C569.978 126.419 570.415 126.637 570.7 127.074L572.724 129.639C571.945 130.551 571.071 131.321 570.102 131.948C569.133 132.556 568.116 133.05 567.052 133.43C566.007 133.791 564.934 134.048 563.832 134.2C562.749 134.352 561.694 134.428 560.668 134.428C558.635 134.428 556.745 134.095 554.997 133.43C553.249 132.746 551.729 131.748 550.437 130.438C549.145 129.107 548.128 127.473 547.387 125.535C546.646 123.578 546.276 121.317 546.276 118.752C546.276 116.757 546.599 114.886 547.245 113.138C547.891 111.371 548.812 109.841 550.009 108.549C551.225 107.238 552.698 106.203 554.427 105.443C556.175 104.683 558.141 104.303 560.326 104.303C562.169 104.303 563.87 104.597 565.428 105.186C566.986 105.775 568.325 106.64 569.446 107.78C570.567 108.901 571.441 110.288 572.068 111.941C572.714 113.575 573.037 115.446 573.037 117.555C573.037 118.619 572.923 119.341 572.695 119.721C572.467 120.082 572.03 120.263 571.384 120.263H553.287ZM584.903 108.35C585.492 107.761 586.11 107.219 586.756 106.725C587.421 106.212 588.114 105.785 588.836 105.443C589.577 105.082 590.366 104.806 591.202 104.616C592.038 104.407 592.95 104.303 593.938 104.303C595.534 104.303 596.949 104.578 598.184 105.129C599.419 105.661 600.445 106.421 601.262 107.409C602.098 108.378 602.725 109.547 603.143 110.915C603.58 112.264 603.799 113.755 603.799 115.389V134H596.759V115.389C596.759 113.603 596.351 112.226 595.534 111.257C594.717 110.269 593.472 109.775 591.8 109.775C590.584 109.775 589.444 110.05 588.38 110.601C587.316 111.152 586.309 111.903 585.359 112.853V134H578.32V104.759H582.623C583.535 104.759 584.134 105.186 584.419 106.041L584.903 108.35ZM619.851 134.456C617.305 134.456 615.348 133.743 613.98 132.318C612.631 130.874 611.956 128.889 611.956 126.362V110.031H608.964C608.584 110.031 608.261 109.908 607.995 109.661C607.729 109.414 607.596 109.043 607.596 108.549V105.756L612.298 104.987L613.78 97.007C613.875 96.627 614.056 96.3325 614.322 96.1235C614.588 95.9145 614.93 95.81 615.348 95.81H618.996V105.015H626.805V110.031H618.996V125.877C618.996 126.789 619.214 127.502 619.651 128.015C620.107 128.528 620.725 128.784 621.504 128.784C621.941 128.784 622.302 128.737 622.587 128.642C622.891 128.528 623.147 128.414 623.356 128.3C623.584 128.186 623.784 128.081 623.955 127.986C624.126 127.872 624.297 127.815 624.468 127.815C624.677 127.815 624.848 127.872 624.981 127.986C625.114 128.081 625.256 128.233 625.408 128.442L627.517 131.862C626.491 132.717 625.313 133.363 623.983 133.8C622.653 134.238 621.276 134.456 619.851 134.456ZM638.437 91.649V134H631.397V91.649H638.437ZM672.013 104.759L656.081 142.037C655.872 142.531 655.597 142.902 655.255 143.149C654.932 143.415 654.428 143.548 653.744 143.548H648.5L653.972 131.805L642.145 104.759H648.329C648.88 104.759 649.308 104.892 649.612 105.158C649.935 105.424 650.172 105.728 650.324 106.07L656.537 121.232C656.746 121.745 656.917 122.258 657.05 122.771C657.202 123.284 657.345 123.806 657.478 124.338C657.649 123.806 657.82 123.284 657.991 122.771C658.162 122.239 658.352 121.716 658.561 121.203L664.432 106.07C664.584 105.69 664.831 105.376 665.173 105.129C665.534 104.882 665.933 104.759 666.37 104.759H672.013ZM708.915 118.439L703.899 104.73C703.652 104.122 703.396 103.4 703.13 102.564C702.864 101.728 702.598 100.826 702.332 99.857C702.085 100.826 701.828 101.738 701.562 102.593C701.296 103.429 701.04 104.16 700.793 104.787L695.805 118.439H708.915ZM722.453 134H716.525C715.86 134 715.318 133.838 714.9 133.515C714.482 133.173 714.169 132.755 713.96 132.261L710.882 123.854H693.81L690.732 132.261C690.58 132.698 690.286 133.097 689.849 133.458C689.412 133.819 688.87 134 688.224 134H682.239L698.456 92.789H706.265L722.453 134ZM743.448 110.459C743.258 110.763 743.058 110.981 742.849 111.114C742.64 111.228 742.374 111.285 742.051 111.285C741.709 111.285 741.339 111.19 740.94 111C740.56 110.81 740.113 110.601 739.6 110.373C739.087 110.126 738.498 109.908 737.833 109.718C737.187 109.528 736.418 109.433 735.525 109.433C734.138 109.433 733.045 109.727 732.247 110.316C731.468 110.905 731.079 111.675 731.079 112.625C731.079 113.252 731.278 113.784 731.677 114.221C732.095 114.639 732.637 115.009 733.302 115.332C733.986 115.655 734.755 115.95 735.61 116.216C736.465 116.463 737.33 116.738 738.204 117.042C739.097 117.346 739.971 117.698 740.826 118.097C741.681 118.477 742.441 118.971 743.106 119.579C743.79 120.168 744.331 120.88 744.73 121.716C745.148 122.552 745.357 123.559 745.357 124.737C745.357 126.143 745.101 127.445 744.588 128.642C744.094 129.82 743.353 130.846 742.365 131.72C741.377 132.575 740.151 133.249 738.688 133.743C737.244 134.219 735.572 134.456 733.672 134.456C732.665 134.456 731.677 134.361 730.708 134.171C729.758 134 728.837 133.753 727.944 133.43C727.07 133.107 726.253 132.727 725.493 132.29C724.752 131.853 724.096 131.378 723.526 130.865L725.151 128.186C725.36 127.863 725.607 127.616 725.892 127.445C726.177 127.274 726.538 127.188 726.975 127.188C727.412 127.188 727.82 127.312 728.2 127.559C728.599 127.806 729.055 128.072 729.568 128.357C730.081 128.642 730.68 128.908 731.364 129.155C732.067 129.402 732.95 129.525 734.014 129.525C734.85 129.525 735.563 129.43 736.152 129.24C736.76 129.031 737.254 128.765 737.634 128.442C738.033 128.119 738.318 127.749 738.489 127.331C738.679 126.894 738.774 126.447 738.774 125.991C738.774 125.307 738.565 124.747 738.147 124.31C737.748 123.873 737.206 123.493 736.522 123.17C735.857 122.847 735.088 122.562 734.214 122.315C733.359 122.049 732.475 121.764 731.563 121.46C730.67 121.156 729.787 120.804 728.913 120.405C728.058 119.987 727.288 119.465 726.604 118.838C725.939 118.211 725.398 117.441 724.98 116.529C724.581 115.617 724.381 114.515 724.381 113.223C724.381 112.026 724.619 110.886 725.094 109.803C725.569 108.72 726.262 107.78 727.174 106.982C728.105 106.165 729.255 105.519 730.623 105.044C732.01 104.55 733.606 104.303 735.411 104.303C737.425 104.303 739.258 104.635 740.911 105.3C742.564 105.965 743.942 106.839 745.044 107.922L743.448 110.459ZM757.695 91.649V115.902H759.006C759.481 115.902 759.852 115.845 760.118 115.731C760.403 115.598 760.688 115.342 760.973 114.962L768.24 105.984C768.544 105.585 768.877 105.281 769.238 105.072C769.618 104.863 770.102 104.759 770.691 104.759H777.132L768.041 115.617C767.395 116.472 766.692 117.128 765.932 117.584C766.331 117.869 766.682 118.201 766.986 118.581C767.309 118.961 767.613 119.37 767.898 119.807L777.645 134H771.29C770.739 134 770.264 133.914 769.865 133.743C769.466 133.553 769.133 133.221 768.867 132.746L761.4 121.659C761.134 121.222 760.859 120.937 760.574 120.804C760.289 120.671 759.861 120.605 759.291 120.605H757.695V134H750.656V91.649H757.695ZM798.44 116.016C798.44 115.104 798.307 114.249 798.041 113.451C797.794 112.634 797.414 111.922 796.901 111.314C796.388 110.706 795.732 110.231 794.934 109.889C794.155 109.528 793.243 109.347 792.198 109.347C790.165 109.347 788.56 109.927 787.382 111.086C786.223 112.245 785.482 113.888 785.159 116.016H798.44ZM785.016 120.263C785.13 121.764 785.396 123.065 785.814 124.167C786.232 125.25 786.783 126.153 787.467 126.875C788.151 127.578 788.959 128.11 789.89 128.471C790.84 128.813 791.885 128.984 793.025 128.984C794.165 128.984 795.143 128.851 795.96 128.585C796.796 128.319 797.518 128.024 798.126 127.701C798.753 127.378 799.295 127.084 799.751 126.818C800.226 126.552 800.682 126.419 801.119 126.419C801.708 126.419 802.145 126.637 802.43 127.074L804.453 129.639C803.674 130.551 802.8 131.321 801.831 131.948C800.862 132.556 799.846 133.05 798.782 133.43C797.737 133.791 796.663 134.048 795.561 134.2C794.478 134.352 793.424 134.428 792.398 134.428C790.365 134.428 788.474 134.095 786.726 133.43C784.978 132.746 783.458 131.748 782.166 130.438C780.874 129.107 779.858 127.473 779.117 125.535C778.376 123.578 778.005 121.317 778.005 118.752C778.005 116.757 778.328 114.886 778.974 113.138C779.62 111.371 780.542 109.841 781.739 108.549C782.955 107.238 784.427 106.203 786.156 105.443C787.904 104.683 789.871 104.303 792.056 104.303C793.899 104.303 795.599 104.597 797.157 105.186C798.715 105.775 800.055 106.64 801.176 107.78C802.297 108.901 803.171 110.288 803.798 111.941C804.444 113.575 804.767 115.446 804.767 117.555C804.767 118.619 804.653 119.341 804.425 119.721C804.197 120.082 803.76 120.263 803.114 120.263H785.016ZM828.403 112.226C827.605 111.257 826.731 110.573 825.781 110.174C824.85 109.775 823.843 109.575 822.76 109.575C821.696 109.575 820.737 109.775 819.882 110.174C819.027 110.573 818.295 111.181 817.687 111.998C817.079 112.796 816.614 113.822 816.291 115.076C815.968 116.311 815.806 117.774 815.806 119.465C815.806 121.175 815.939 122.628 816.205 123.825C816.49 125.003 816.889 125.972 817.402 126.732C817.915 127.473 818.542 128.015 819.283 128.357C820.024 128.68 820.851 128.841 821.763 128.841C823.226 128.841 824.47 128.537 825.496 127.929C826.522 127.321 827.491 126.457 828.403 125.336V112.226ZM835.443 91.649V134H831.139C830.208 134 829.619 133.572 829.372 132.717L828.774 129.896C827.596 131.245 826.237 132.337 824.698 133.173C823.178 134.01 821.402 134.428 819.369 134.428C817.773 134.428 816.31 134.095 814.98 133.43C813.65 132.765 812.5 131.805 811.531 130.551C810.581 129.278 809.84 127.711 809.308 125.849C808.795 123.987 808.539 121.859 808.539 119.465C808.539 117.299 808.833 115.285 809.422 113.423C810.011 111.561 810.857 109.946 811.959 108.578C813.061 107.21 814.381 106.146 815.92 105.386C817.459 104.607 819.188 104.217 821.107 104.217C822.741 104.217 824.138 104.474 825.297 104.987C826.456 105.5 827.491 106.193 828.403 107.067V91.649H835.443ZM862.777 113.394C862.777 115.655 863.081 117.688 863.689 119.493C864.297 121.279 865.161 122.799 866.282 124.053C867.422 125.288 868.79 126.238 870.386 126.903C872.001 127.568 873.816 127.901 875.83 127.901C877.844 127.901 879.649 127.568 881.245 126.903C882.86 126.238 884.228 125.288 885.349 124.053C886.47 122.799 887.334 121.279 887.942 119.493C888.55 117.688 888.854 115.655 888.854 113.394C888.854 111.133 888.55 109.11 887.942 107.324C887.334 105.519 886.47 103.989 885.349 102.735C884.228 101.481 882.86 100.522 881.245 99.857C879.649 99.192 877.844 98.8595 875.83 98.8595C873.816 98.8595 872.001 99.192 870.386 99.857C868.79 100.522 867.422 101.481 866.282 102.735C865.161 103.989 864.297 105.519 863.689 107.324C863.081 109.11 862.777 111.133 862.777 113.394ZM898.829 142.066H892.502C891.59 142.066 890.764 141.942 890.023 141.695C889.301 141.448 888.636 140.992 888.028 140.327L881.986 133.658C881.017 133.924 880.019 134.124 878.993 134.257C877.986 134.39 876.932 134.456 875.83 134.456C872.714 134.456 869.873 133.934 867.308 132.888C864.743 131.824 862.539 130.352 860.696 128.471C858.872 126.59 857.457 124.367 856.45 121.802C855.443 119.218 854.939 116.415 854.939 113.394C854.939 110.373 855.443 107.58 856.45 105.015C857.457 102.431 858.872 100.199 860.696 98.318C862.539 96.437 864.743 94.974 867.308 93.929C869.873 92.865 872.714 92.333 875.83 92.333C877.92 92.333 879.886 92.58 881.729 93.074C883.572 93.549 885.263 94.233 886.802 95.126C888.341 96 889.719 97.0735 890.935 98.3465C892.17 99.6005 893.215 101.006 894.07 102.564C894.925 104.122 895.571 105.813 896.008 107.637C896.464 109.461 896.692 111.38 896.692 113.394C896.692 115.237 896.502 117.004 896.122 118.695C895.742 120.367 895.191 121.935 894.469 123.398C893.766 124.861 892.901 126.21 891.875 127.445C890.849 128.661 889.681 129.734 888.37 130.665L898.829 142.066ZM927.089 104.759V134H922.785C921.854 134 921.265 133.572 921.018 132.717L920.534 130.38C919.337 131.596 918.016 132.584 916.572 133.344C915.128 134.085 913.428 134.456 911.471 134.456C909.875 134.456 908.459 134.19 907.224 133.658C906.008 133.107 904.982 132.337 904.146 131.349C903.31 130.361 902.674 129.193 902.237 127.844C901.819 126.476 901.61 124.975 901.61 123.341V104.759H908.649V123.341C908.649 125.127 909.058 126.514 909.875 127.502C910.711 128.471 911.955 128.955 913.608 128.955C914.824 128.955 915.964 128.689 917.028 128.157C918.092 127.606 919.099 126.856 920.049 125.906V104.759H927.089ZM952.907 116.016C952.907 115.104 952.774 114.249 952.508 113.451C952.261 112.634 951.881 111.922 951.368 111.314C950.855 110.706 950.2 110.231 949.402 109.889C948.623 109.528 947.711 109.347 946.666 109.347C944.633 109.347 943.027 109.927 941.849 111.086C940.69 112.245 939.949 113.888 939.626 116.016H952.907ZM939.484 120.263C939.598 121.764 939.864 123.065 940.282 124.167C940.7 125.25 941.251 126.153 941.935 126.875C942.619 127.578 943.426 128.11 944.357 128.471C945.307 128.813 946.352 128.984 947.492 128.984C948.632 128.984 949.611 128.851 950.428 128.585C951.264 128.319 951.986 128.024 952.594 127.701C953.221 127.378 953.762 127.084 954.218 126.818C954.693 126.552 955.149 126.419 955.586 126.419C956.175 126.419 956.612 126.637 956.897 127.074L958.921 129.639C958.142 130.551 957.268 131.321 956.299 131.948C955.33 132.556 954.313 133.05 953.249 133.43C952.204 133.791 951.131 134.048 950.029 134.2C948.946 134.352 947.891 134.428 946.865 134.428C944.832 134.428 942.942 134.095 941.194 133.43C939.446 132.746 937.926 131.748 936.634 130.438C935.342 129.107 934.325 127.473 933.584 125.535C932.843 123.578 932.473 121.317 932.473 118.752C932.473 116.757 932.796 114.886 933.442 113.138C934.088 111.371 935.009 109.841 936.206 108.549C937.422 107.238 938.895 106.203 940.624 105.443C942.372 104.683 944.338 104.303 946.523 104.303C948.366 104.303 950.067 104.597 951.625 105.186C953.183 105.775 954.522 106.64 955.643 107.78C956.764 108.901 957.638 110.288 958.265 111.941C958.911 113.575 959.234 115.446 959.234 117.555C959.234 118.619 959.12 119.341 958.892 119.721C958.664 120.082 958.227 120.263 957.581 120.263H939.484ZM982.358 110.459C982.168 110.763 981.969 110.981 981.76 111.114C981.551 111.228 981.285 111.285 980.962 111.285C980.62 111.285 980.249 111.19 979.85 111C979.47 110.81 979.024 110.601 978.511 110.373C977.998 110.126 977.409 109.908 976.744 109.718C976.098 109.528 975.328 109.433 974.435 109.433C973.048 109.433 971.956 109.727 971.158 110.316C970.379 110.905 969.989 111.675 969.989 112.625C969.989 113.252 970.189 113.784 970.588 114.221C971.006 114.639 971.547 115.009 972.212 115.332C972.896 115.655 973.666 115.95 974.521 116.216C975.376 116.463 976.24 116.738 977.114 117.042C978.007 117.346 978.881 117.698 979.736 118.097C980.591 118.477 981.351 118.971 982.016 119.579C982.7 120.168 983.242 120.88 983.641 121.716C984.059 122.552 984.268 123.559 984.268 124.737C984.268 126.143 984.011 127.445 983.498 128.642C983.004 129.82 982.263 130.846 981.275 131.72C980.287 132.575 979.062 133.249 977.599 133.743C976.155 134.219 974.483 134.456 972.583 134.456C971.576 134.456 970.588 134.361 969.619 134.171C968.669 134 967.747 133.753 966.854 133.43C965.98 133.107 965.163 132.727 964.403 132.29C963.662 131.853 963.007 131.378 962.437 130.865L964.061 128.186C964.27 127.863 964.517 127.616 964.802 127.445C965.087 127.274 965.448 127.188 965.885 127.188C966.322 127.188 966.731 127.312 967.111 127.559C967.51 127.806 967.966 128.072 968.479 128.357C968.992 128.642 969.59 128.908 970.274 129.155C970.977 129.402 971.861 129.525 972.925 129.525C973.761 129.525 974.473 129.43 975.062 129.24C975.67 129.031 976.164 128.765 976.544 128.442C976.943 128.119 977.228 127.749 977.399 127.331C977.589 126.894 977.684 126.447 977.684 125.991C977.684 125.307 977.475 124.747 977.057 124.31C976.658 123.873 976.117 123.493 975.433 123.17C974.768 122.847 973.998 122.562 973.124 122.315C972.269 122.049 971.386 121.764 970.474 121.46C969.581 121.156 968.697 120.804 967.823 120.405C966.968 119.987 966.199 119.465 965.515 118.838C964.85 118.211 964.308 117.441 963.89 116.529C963.491 115.617 963.292 114.515 963.292 113.223C963.292 112.026 963.529 110.886 964.004 109.803C964.479 108.72 965.173 107.78 966.085 106.982C967.016 106.165 968.165 105.519 969.533 105.044C970.92 104.55 972.516 104.303 974.321 104.303C976.335 104.303 978.169 104.635 979.822 105.3C981.475 105.965 982.852 106.839 983.954 107.922L982.358 110.459ZM1019.06 134H1012.02V110.031H998.458V125.877C998.458 126.789 998.676 127.502 999.113 128.015C999.569 128.528 1000.19 128.784 1000.97 128.784C1001.4 128.784 1001.76 128.737 1002.05 128.642C1002.35 128.528 1002.61 128.414 1002.82 128.3C1003.05 128.186 1003.25 128.081 1003.42 127.986C1003.59 127.872 1003.76 127.815 1003.93 127.815C1004.14 127.815 1004.31 127.872 1004.44 127.986C1004.58 128.081 1004.72 128.233 1004.87 128.442L1006.98 131.862C1005.95 132.717 1004.78 133.363 1003.45 133.8C1002.12 134.238 1000.74 134.456 999.313 134.456C996.767 134.456 994.81 133.743 993.442 132.318C992.093 130.874 991.418 128.889 991.418 126.362V110.031H988.426C988.046 110.031 987.723 109.908 987.457 109.661C987.191 109.414 987.058 109.043 987.058 108.549V105.756L991.76 104.958L993.242 97.007C993.337 96.627 993.518 96.3325 993.784 96.1235C994.05 95.9145 994.392 95.81 994.81 95.81H998.458V105.015H1019.06V134ZM1020.29 96.1235C1020.29 96.7315 1020.17 97.311 1019.92 97.862C1019.67 98.394 1019.34 98.8595 1018.92 99.2585C1018.52 99.6575 1018.04 99.9805 1017.47 100.227C1016.92 100.455 1016.33 100.569 1015.7 100.569C1015.09 100.569 1014.52 100.455 1013.99 100.227C1013.46 99.9805 1012.99 99.6575 1012.59 99.2585C1012.19 98.8595 1011.87 98.394 1011.62 97.862C1011.4 97.311 1011.28 96.7315 1011.28 96.1235C1011.28 95.4965 1011.4 94.917 1011.62 94.385C1011.87 93.834 1012.19 93.359 1012.59 92.96C1012.99 92.542 1013.46 92.219 1013.99 91.991C1014.52 91.744 1015.09 91.6205 1015.7 91.6205C1016.33 91.6205 1016.92 91.744 1017.47 91.991C1018.04 92.219 1018.52 92.542 1018.92 92.96C1019.34 93.359 1019.67 93.834 1019.92 94.385C1020.17 94.917 1020.29 95.4965 1020.29 96.1235ZM1039.19 104.303C1041.35 104.303 1043.32 104.654 1045.09 105.358C1046.87 106.06 1048.39 107.058 1049.65 108.35C1050.92 109.642 1051.9 111.219 1052.58 113.081C1053.27 114.943 1053.61 117.023 1053.61 119.322C1053.61 121.64 1053.27 123.73 1052.58 125.592C1051.9 127.454 1050.92 129.041 1049.65 130.352C1048.39 131.663 1046.87 132.67 1045.09 133.373C1043.32 134.076 1041.35 134.428 1039.19 134.428C1037 134.428 1035.02 134.076 1033.23 133.373C1031.44 132.67 1029.92 131.663 1028.64 130.352C1027.39 129.041 1026.41 127.454 1025.71 125.592C1025.02 123.73 1024.68 121.64 1024.68 119.322C1024.68 117.023 1025.02 114.943 1025.71 113.081C1026.41 111.219 1027.39 109.642 1028.64 108.35C1029.92 107.058 1031.44 106.06 1033.23 105.358C1035.02 104.654 1037 104.303 1039.19 104.303ZM1039.19 129.012C1041.62 129.012 1043.41 128.195 1044.57 126.561C1045.75 124.927 1046.34 122.533 1046.34 119.379C1046.34 116.225 1045.75 113.822 1044.57 112.169C1043.41 110.516 1041.62 109.689 1039.19 109.689C1036.72 109.689 1034.88 110.525 1033.69 112.197C1032.51 113.85 1031.92 116.244 1031.92 119.379C1031.92 122.514 1032.51 124.908 1033.69 126.561C1034.88 128.195 1036.72 129.012 1039.19 129.012ZM1065.56 108.35C1066.15 107.761 1066.77 107.219 1067.41 106.725C1068.08 106.212 1068.77 105.785 1069.5 105.443C1070.24 105.082 1071.02 104.806 1071.86 104.616C1072.7 104.407 1073.61 104.303 1074.6 104.303C1076.19 104.303 1077.61 104.578 1078.84 105.129C1080.08 105.661 1081.1 106.421 1081.92 107.409C1082.76 108.378 1083.38 109.547 1083.8 110.915C1084.24 112.264 1084.46 113.755 1084.46 115.389V134H1077.42V115.389C1077.42 113.603 1077.01 112.226 1076.19 111.257C1075.38 110.269 1074.13 109.775 1072.46 109.775C1071.24 109.775 1070.1 110.05 1069.04 110.601C1067.98 111.152 1066.97 111.903 1066.02 112.853V134H1058.98V104.759H1063.28C1064.19 104.759 1064.79 105.186 1065.08 106.041L1065.56 108.35ZM1108.99 110.459C1108.8 110.763 1108.6 110.981 1108.4 111.114C1108.19 111.228 1107.92 111.285 1107.6 111.285C1107.26 111.285 1106.88 111.19 1106.49 111C1106.11 110.81 1105.66 110.601 1105.15 110.373C1104.63 110.126 1104.04 109.908 1103.38 109.718C1102.73 109.528 1101.96 109.433 1101.07 109.433C1099.68 109.433 1098.59 109.727 1097.79 110.316C1097.01 110.905 1096.62 111.675 1096.62 112.625C1096.62 113.252 1096.82 113.784 1097.22 114.221C1097.64 114.639 1098.18 115.009 1098.85 115.332C1099.53 115.655 1100.3 115.95 1101.16 116.216C1102.01 116.463 1102.88 116.738 1103.75 117.042C1104.64 117.346 1105.52 117.698 1106.37 118.097C1107.23 118.477 1107.99 118.971 1108.65 119.579C1109.34 120.168 1109.88 120.88 1110.28 121.716C1110.69 122.552 1110.9 123.559 1110.9 124.737C1110.9 126.143 1110.65 127.445 1110.13 128.642C1109.64 129.82 1108.9 130.846 1107.91 131.72C1106.92 132.575 1105.7 133.249 1104.23 133.743C1102.79 134.219 1101.12 134.456 1099.22 134.456C1098.21 134.456 1097.22 134.361 1096.25 134.171C1095.3 134 1094.38 133.753 1093.49 133.43C1092.62 133.107 1091.8 132.727 1091.04 132.29C1090.3 131.853 1089.64 131.378 1089.07 130.865L1090.7 128.186C1090.91 127.863 1091.15 127.616 1091.44 127.445C1091.72 127.274 1092.08 127.188 1092.52 127.188C1092.96 127.188 1093.37 127.312 1093.75 127.559C1094.15 127.806 1094.6 128.072 1095.11 128.357C1095.63 128.642 1096.23 128.908 1096.91 129.155C1097.61 129.402 1098.5 129.525 1099.56 129.525C1100.4 129.525 1101.11 129.43 1101.7 129.24C1102.31 129.031 1102.8 128.765 1103.18 128.442C1103.58 128.119 1103.86 127.749 1104.03 127.331C1104.22 126.894 1104.32 126.447 1104.32 125.991C1104.32 125.307 1104.11 124.747 1103.69 124.31C1103.29 123.873 1102.75 123.493 1102.07 123.17C1101.4 122.847 1100.63 122.562 1099.76 122.315C1098.9 122.049 1098.02 121.764 1097.11 121.46C1096.22 121.156 1095.33 120.804 1094.46 120.405C1093.6 119.987 1092.83 119.465 1092.15 118.838C1091.49 118.211 1090.94 117.441 1090.53 116.529C1090.13 115.617 1089.93 114.515 1089.93 113.223C1089.93 112.026 1090.16 110.886 1090.64 109.803C1091.11 108.72 1091.81 107.78 1092.72 106.982C1093.65 106.165 1094.8 105.519 1096.17 105.044C1097.56 104.55 1099.15 104.303 1100.96 104.303C1102.97 104.303 1104.8 104.635 1106.46 105.3C1108.11 105.965 1109.49 106.839 1110.59 107.922L1108.99 110.459Z" fill="#F2F2F2"/>
<circle cx="345" cy="184" r="12" fill="#F16F04"/>
</g>
<defs>
<clipPath id="clip0_220_152">
<rect width="1512" height="232" fill="white"/>
</clipPath>
</defs>
</svg>
