<svg width="1512" height="232" viewBox="0 0 1512 232" fill="none" xmlns="http://www.w3.org/2000/svg">
<g clip-path="url(#clip0_226_930)">
<rect width="1512" height="232" fill="#233BA9"/>
<circle cx="1415.5" cy="26.5" r="123.5" fill="#F16F04"/>
<circle cx="121" cy="139" r="33" fill="#F16F04"/>
<circle cx="457.5" cy="-10.5" r="48.5" fill="#F16F04"/>
<circle cx="1110" cy="33" r="18" fill="#F16F04"/>
<circle cx="13.5" cy="15.5" r="22.5" fill="#F16F04"/>
<circle cx="935.216" cy="244.216" r="54.3221" transform="rotate(-25.0569 935.216 244.216)" fill="#F16F04"/>
<path d="M256.423 92.789L243.626 134H236.701L227.695 105.842C227.448 105.158 227.22 104.322 227.011 103.334C226.897 103.809 226.783 104.255 226.669 104.673C226.555 105.091 226.431 105.481 226.298 105.842L217.207 134H210.253L197.485 92.789H203.897C204.562 92.789 205.113 92.9505 205.55 93.2735C206.006 93.5775 206.31 93.9955 206.462 94.5275L213.473 119.18C213.625 119.788 213.768 120.453 213.901 121.175C214.053 121.878 214.205 122.619 214.357 123.398C214.509 122.6 214.67 121.849 214.841 121.146C215.031 120.443 215.231 119.788 215.44 119.18L223.534 94.5275C223.686 94.0905 223.98 93.6915 224.417 93.3305C224.873 92.9695 225.424 92.789 226.07 92.789H228.322C228.987 92.789 229.528 92.9505 229.946 93.2735C230.364 93.5965 230.678 94.0145 230.887 94.5275L238.952 119.18C239.351 120.358 239.712 121.716 240.035 123.255C240.282 121.754 240.558 120.396 240.862 119.18L247.873 94.5275C247.987 94.0525 248.272 93.644 248.728 93.302C249.203 92.96 249.763 92.789 250.409 92.789H256.423ZM275.759 116.016C275.759 115.104 275.626 114.249 275.36 113.451C275.113 112.634 274.733 111.922 274.22 111.314C273.707 110.706 273.051 110.231 272.253 109.889C271.474 109.528 270.562 109.347 269.517 109.347C267.484 109.347 265.879 109.927 264.701 111.086C263.542 112.245 262.801 113.888 262.478 116.016H275.759ZM262.335 120.263C262.449 121.764 262.715 123.065 263.133 124.167C263.551 125.25 264.102 126.153 264.786 126.875C265.47 127.578 266.278 128.11 267.209 128.471C268.159 128.813 269.204 128.984 270.344 128.984C271.484 128.984 272.462 128.851 273.279 128.585C274.115 128.319 274.837 128.024 275.445 127.701C276.072 127.378 276.614 127.084 277.07 126.818C277.545 126.552 278.001 126.419 278.438 126.419C279.027 126.419 279.464 126.637 279.749 127.074L281.772 129.639C280.993 130.551 280.119 131.321 279.15 131.948C278.181 132.556 277.165 133.05 276.101 133.43C275.056 133.791 273.982 134.048 272.88 134.2C271.797 134.352 270.743 134.428 269.717 134.428C267.684 134.428 265.793 134.095 264.045 133.43C262.297 132.746 260.777 131.748 259.485 130.438C258.193 129.107 257.177 127.473 256.436 125.535C255.695 123.578 255.324 121.317 255.324 118.752C255.324 116.757 255.647 114.886 256.293 113.138C256.939 111.371 257.861 109.841 259.058 108.549C260.274 107.238 261.746 106.203 263.475 105.443C265.223 104.683 267.19 104.303 269.375 104.303C271.218 104.303 272.918 104.597 274.476 105.186C276.034 105.775 277.374 106.64 278.495 107.78C279.616 108.901 280.49 110.288 281.117 111.941C281.763 113.575 282.086 115.446 282.086 117.555C282.086 118.619 281.972 119.341 281.744 119.721C281.516 120.082 281.079 120.263 280.433 120.263H262.335ZM316.676 121.517C314.643 121.612 312.933 121.792 311.546 122.058C310.159 122.305 309.047 122.628 308.211 123.027C307.375 123.426 306.777 123.892 306.416 124.424C306.055 124.956 305.874 125.535 305.874 126.162C305.874 127.397 306.235 128.281 306.957 128.813C307.698 129.345 308.658 129.611 309.836 129.611C311.28 129.611 312.524 129.354 313.569 128.841C314.633 128.309 315.669 127.511 316.676 126.447V121.517ZM300.545 108.834C303.908 105.756 307.955 104.217 312.686 104.217C314.396 104.217 315.925 104.502 317.274 105.072C318.623 105.623 319.763 106.402 320.694 107.409C321.625 108.397 322.328 109.585 322.803 110.972C323.297 112.359 323.544 113.879 323.544 115.532V134H320.352C319.687 134 319.174 133.905 318.813 133.715C318.452 133.506 318.167 133.097 317.958 132.489L317.331 130.38C316.59 131.045 315.868 131.634 315.165 132.147C314.462 132.641 313.731 133.059 312.971 133.401C312.211 133.743 311.394 134 310.52 134.171C309.665 134.361 308.715 134.456 307.67 134.456C306.435 134.456 305.295 134.295 304.25 133.971C303.205 133.629 302.302 133.126 301.542 132.461C300.782 131.796 300.193 130.969 299.775 129.981C299.357 128.993 299.148 127.844 299.148 126.533C299.148 125.792 299.272 125.06 299.519 124.338C299.766 123.597 300.165 122.894 300.716 122.229C301.286 121.564 302.017 120.937 302.91 120.348C303.803 119.759 304.896 119.246 306.188 118.809C307.499 118.372 309.019 118.021 310.748 117.755C312.477 117.47 314.453 117.299 316.676 117.242V115.532C316.676 113.575 316.258 112.131 315.422 111.2C314.586 110.25 313.379 109.775 311.802 109.775C310.662 109.775 309.712 109.908 308.952 110.174C308.211 110.44 307.556 110.744 306.986 111.086C306.416 111.409 305.893 111.703 305.418 111.969C304.962 112.235 304.449 112.368 303.879 112.368C303.385 112.368 302.967 112.245 302.625 111.998C302.283 111.732 302.008 111.428 301.799 111.086L300.545 108.834ZM336.815 109.832C337.727 108.084 338.81 106.716 340.064 105.728C341.318 104.721 342.8 104.217 344.51 104.217C345.859 104.217 346.942 104.512 347.759 105.101L347.303 110.373C347.208 110.715 347.065 110.962 346.875 111.114C346.704 111.247 346.467 111.314 346.163 111.314C345.878 111.314 345.45 111.266 344.88 111.171C344.329 111.076 343.788 111.029 343.256 111.029C342.477 111.029 341.783 111.143 341.175 111.371C340.567 111.599 340.016 111.931 339.522 112.368C339.047 112.786 338.62 113.299 338.24 113.907C337.879 114.515 337.537 115.209 337.214 115.988V134H330.174V104.759H334.307C335.029 104.759 335.532 104.892 335.817 105.158C336.102 105.405 336.292 105.861 336.387 106.526L336.815 109.832ZM369.441 116.016C369.441 115.104 369.308 114.249 369.042 113.451C368.795 112.634 368.415 111.922 367.902 111.314C367.389 110.706 366.734 110.231 365.936 109.889C365.157 109.528 364.245 109.347 363.2 109.347C361.167 109.347 359.561 109.927 358.383 111.086C357.224 112.245 356.483 113.888 356.16 116.016H369.441ZM356.018 120.263C356.132 121.764 356.398 123.065 356.816 124.167C357.234 125.25 357.785 126.153 358.469 126.875C359.153 127.578 359.96 128.11 360.891 128.471C361.841 128.813 362.886 128.984 364.026 128.984C365.166 128.984 366.145 128.851 366.962 128.585C367.798 128.319 368.52 128.024 369.128 127.701C369.755 127.378 370.296 127.084 370.752 126.818C371.227 126.552 371.683 126.419 372.12 126.419C372.709 126.419 373.146 126.637 373.431 127.074L375.455 129.639C374.676 130.551 373.802 131.321 372.833 131.948C371.864 132.556 370.847 133.05 369.783 133.43C368.738 133.791 367.665 134.048 366.563 134.2C365.48 134.352 364.425 134.428 363.399 134.428C361.366 134.428 359.476 134.095 357.728 133.43C355.98 132.746 354.46 131.748 353.168 130.438C351.876 129.107 350.859 127.473 350.118 125.535C349.377 123.578 349.007 121.317 349.007 118.752C349.007 116.757 349.33 114.886 349.976 113.138C350.622 111.371 351.543 109.841 352.74 108.549C353.956 107.238 355.429 106.203 357.158 105.443C358.906 104.683 360.872 104.303 363.057 104.303C364.9 104.303 366.601 104.597 368.159 105.186C369.717 105.775 371.056 106.64 372.177 107.78C373.298 108.901 374.172 110.288 374.799 111.941C375.445 113.575 375.768 115.446 375.768 117.555C375.768 118.619 375.654 119.341 375.426 119.721C375.198 120.082 374.761 120.263 374.115 120.263H356.018ZM415.859 110.943C415.65 111.209 415.441 111.418 415.232 111.57C415.042 111.722 414.757 111.798 414.377 111.798C414.016 111.798 413.665 111.694 413.323 111.485C412.981 111.257 412.572 111.01 412.097 110.744C411.622 110.459 411.052 110.212 410.387 110.003C409.741 109.775 408.934 109.661 407.965 109.661C406.73 109.661 405.647 109.889 404.716 110.345C403.785 110.782 403.006 111.418 402.379 112.254C401.771 113.09 401.315 114.107 401.011 115.304C400.707 116.482 400.555 117.821 400.555 119.322C400.555 120.88 400.716 122.267 401.039 123.483C401.381 124.699 401.866 125.725 402.493 126.561C403.12 127.378 403.88 128.005 404.773 128.442C405.666 128.86 406.673 129.069 407.794 129.069C408.915 129.069 409.817 128.936 410.501 128.67C411.204 128.385 411.793 128.081 412.268 127.758C412.743 127.416 413.152 127.112 413.494 126.846C413.855 126.561 414.254 126.419 414.691 126.419C415.261 126.419 415.688 126.637 415.973 127.074L417.997 129.639C417.218 130.551 416.372 131.321 415.46 131.948C414.548 132.556 413.598 133.05 412.61 133.43C411.641 133.791 410.634 134.048 409.589 134.2C408.563 134.352 407.537 134.428 406.511 134.428C404.706 134.428 403.006 134.095 401.41 133.43C399.814 132.746 398.417 131.758 397.22 130.466C396.023 129.174 395.073 127.597 394.37 125.735C393.686 123.854 393.344 121.716 393.344 119.322C393.344 117.175 393.648 115.19 394.256 113.366C394.883 111.523 395.795 109.936 396.992 108.606C398.189 107.257 399.671 106.203 401.438 105.443C403.205 104.683 405.238 104.303 407.537 104.303C409.722 104.303 411.632 104.654 413.266 105.358C414.919 106.06 416.401 107.067 417.712 108.378L415.859 110.943ZM434.848 104.303C437.014 104.303 438.98 104.654 440.747 105.358C442.533 106.06 444.053 107.058 445.307 108.35C446.58 109.642 447.559 111.219 448.243 113.081C448.927 114.943 449.269 117.023 449.269 119.322C449.269 121.64 448.927 123.73 448.243 125.592C447.559 127.454 446.58 129.041 445.307 130.352C444.053 131.663 442.533 132.67 440.747 133.373C438.98 134.076 437.014 134.428 434.848 134.428C432.663 134.428 430.677 134.076 428.891 133.373C427.105 132.67 425.576 131.663 424.303 130.352C423.049 129.041 422.07 127.454 421.367 125.592C420.683 123.73 420.341 121.64 420.341 119.322C420.341 117.023 420.683 114.943 421.367 113.081C422.07 111.219 423.049 109.642 424.303 108.35C425.576 107.058 427.105 106.06 428.891 105.358C430.677 104.654 432.663 104.303 434.848 104.303ZM434.848 129.012C437.28 129.012 439.075 128.195 440.234 126.561C441.412 124.927 442.001 122.533 442.001 119.379C442.001 116.225 441.412 113.822 440.234 112.169C439.075 110.516 437.28 109.689 434.848 109.689C432.378 109.689 430.544 110.525 429.347 112.197C428.169 113.85 427.58 116.244 427.58 119.379C427.58 122.514 428.169 124.908 429.347 126.561C430.544 128.195 432.378 129.012 434.848 129.012ZM454.639 134V104.759H458.943C459.855 104.759 460.453 105.186 460.738 106.041L461.194 108.207C461.707 107.637 462.239 107.115 462.79 106.64C463.36 106.165 463.959 105.756 464.586 105.414C465.232 105.072 465.916 104.806 466.638 104.616C467.379 104.407 468.186 104.303 469.06 104.303C470.903 104.303 472.414 104.806 473.592 105.813C474.789 106.801 475.682 108.122 476.271 109.775C476.727 108.806 477.297 107.979 477.981 107.295C478.665 106.592 479.415 106.022 480.232 105.585C481.049 105.148 481.914 104.825 482.826 104.616C483.757 104.407 484.688 104.303 485.619 104.303C487.234 104.303 488.668 104.55 489.922 105.044C491.176 105.538 492.231 106.26 493.086 107.21C493.941 108.16 494.587 109.319 495.024 110.687C495.48 112.055 495.708 113.622 495.708 115.389V134H488.668V115.389C488.668 113.527 488.26 112.131 487.443 111.2C486.626 110.25 485.429 109.775 483.852 109.775C483.13 109.775 482.455 109.898 481.828 110.145C481.22 110.392 480.679 110.753 480.204 111.228C479.748 111.684 479.387 112.264 479.121 112.967C478.855 113.67 478.722 114.477 478.722 115.389V134H471.654V115.389C471.654 113.432 471.255 112.007 470.457 111.114C469.678 110.221 468.528 109.775 467.008 109.775C465.982 109.775 465.023 110.031 464.13 110.544C463.256 111.038 462.439 111.722 461.679 112.596V134H454.639ZM502.399 134V104.759H506.702C507.614 104.759 508.213 105.186 508.498 106.041L508.954 108.207C509.467 107.637 509.999 107.115 510.55 106.64C511.12 106.165 511.718 105.756 512.345 105.414C512.991 105.072 513.675 104.806 514.397 104.616C515.138 104.407 515.946 104.303 516.82 104.303C518.663 104.303 520.173 104.806 521.351 105.813C522.548 106.801 523.441 108.122 524.03 109.775C524.486 108.806 525.056 107.979 525.74 107.295C526.424 106.592 527.175 106.022 527.992 105.585C528.809 105.148 529.673 104.825 530.585 104.616C531.516 104.407 532.447 104.303 533.378 104.303C534.993 104.303 536.428 104.55 537.682 105.044C538.936 105.538 539.99 106.26 540.845 107.21C541.7 108.16 542.346 109.319 542.783 110.687C543.239 112.055 543.467 113.622 543.467 115.389V134H536.428V115.389C536.428 113.527 536.019 112.131 535.202 111.2C534.385 110.25 533.188 109.775 531.611 109.775C530.889 109.775 530.215 109.898 529.588 110.145C528.98 110.392 528.438 110.753 527.963 111.228C527.507 111.684 527.146 112.264 526.88 112.967C526.614 113.67 526.481 114.477 526.481 115.389V134H519.413V115.389C519.413 113.432 519.014 112.007 518.216 111.114C517.437 110.221 516.288 109.775 514.768 109.775C513.742 109.775 512.782 110.031 511.889 110.544C511.015 111.038 510.198 111.722 509.438 112.596V134H502.399ZM557.455 104.759V134H550.387V104.759H557.455ZM558.424 96.2375C558.424 96.8455 558.3 97.4155 558.053 97.9475C557.806 98.4795 557.474 98.945 557.056 99.344C556.657 99.743 556.182 100.066 555.631 100.313C555.08 100.541 554.491 100.655 553.864 100.655C553.256 100.655 552.676 100.541 552.125 100.313C551.593 100.066 551.128 99.743 550.729 99.344C550.33 98.945 550.007 98.4795 549.76 97.9475C549.532 97.4155 549.418 96.8455 549.418 96.2375C549.418 95.6105 549.532 95.0215 549.76 94.4705C550.007 93.9195 550.33 93.4445 550.729 93.0455C551.128 92.6465 551.593 92.333 552.125 92.105C552.676 91.858 553.256 91.7345 553.864 91.7345C554.491 91.7345 555.08 91.858 555.631 92.105C556.182 92.333 556.657 92.6465 557.056 93.0455C557.474 93.4445 557.806 93.9195 558.053 94.4705C558.3 95.0215 558.424 95.6105 558.424 96.2375ZM574.378 134.456C571.832 134.456 569.875 133.743 568.507 132.318C567.158 130.874 566.484 128.889 566.484 126.362V110.031H563.491C563.111 110.031 562.788 109.908 562.522 109.661C562.256 109.414 562.123 109.043 562.123 108.549V105.756L566.826 104.987L568.308 97.007C568.403 96.627 568.583 96.3325 568.849 96.1235C569.115 95.9145 569.457 95.81 569.875 95.81H573.523V105.015H581.332V110.031H573.523V125.877C573.523 126.789 573.742 127.502 574.179 128.015C574.635 128.528 575.252 128.784 576.031 128.784C576.468 128.784 576.829 128.737 577.114 128.642C577.418 128.528 577.675 128.414 577.884 128.3C578.112 128.186 578.311 128.081 578.482 127.986C578.653 127.872 578.824 127.815 578.995 127.815C579.204 127.815 579.375 127.872 579.508 127.986C579.641 128.081 579.784 128.233 579.936 128.442L582.045 131.862C581.019 132.717 579.841 133.363 578.511 133.8C577.181 134.238 575.803 134.456 574.378 134.456ZM604.455 116.016C604.455 115.104 604.322 114.249 604.056 113.451C603.809 112.634 603.429 111.922 602.916 111.314C602.403 110.706 601.748 110.231 600.95 109.889C600.171 109.528 599.259 109.347 598.214 109.347C596.181 109.347 594.575 109.927 593.397 111.086C592.238 112.245 591.497 113.888 591.174 116.016H604.455ZM591.032 120.263C591.146 121.764 591.412 123.065 591.83 124.167C592.248 125.25 592.799 126.153 593.483 126.875C594.167 127.578 594.974 128.11 595.905 128.471C596.855 128.813 597.9 128.984 599.04 128.984C600.18 128.984 601.159 128.851 601.976 128.585C602.812 128.319 603.534 128.024 604.142 127.701C604.769 127.378 605.31 127.084 605.766 126.818C606.241 126.552 606.697 126.419 607.134 126.419C607.723 126.419 608.16 126.637 608.445 127.074L610.469 129.639C609.69 130.551 608.816 131.321 607.847 131.948C606.878 132.556 605.861 133.05 604.797 133.43C603.752 133.791 602.679 134.048 601.577 134.2C600.494 134.352 599.439 134.428 598.413 134.428C596.38 134.428 594.49 134.095 592.742 133.43C590.994 132.746 589.474 131.748 588.182 130.438C586.89 129.107 585.873 127.473 585.132 125.535C584.391 123.578 584.021 121.317 584.021 118.752C584.021 116.757 584.344 114.886 584.99 113.138C585.636 111.371 586.557 109.841 587.754 108.549C588.97 107.238 590.443 106.203 592.172 105.443C593.92 104.683 595.886 104.303 598.071 104.303C599.914 104.303 601.615 104.597 603.173 105.186C604.731 105.775 606.07 106.64 607.191 107.78C608.312 108.901 609.186 110.288 609.813 111.941C610.459 113.575 610.782 115.446 610.782 117.555C610.782 118.619 610.668 119.341 610.44 119.721C610.212 120.082 609.775 120.263 609.129 120.263H591.032ZM634.419 112.226C633.621 111.257 632.747 110.573 631.797 110.174C630.866 109.775 629.859 109.575 628.776 109.575C627.712 109.575 626.752 109.775 625.897 110.174C625.042 110.573 624.311 111.181 623.703 111.998C623.095 112.796 622.629 113.822 622.306 115.076C621.983 116.311 621.822 117.774 621.822 119.465C621.822 121.175 621.955 122.628 622.221 123.825C622.506 125.003 622.905 125.972 623.418 126.732C623.931 127.473 624.558 128.015 625.299 128.357C626.04 128.68 626.866 128.841 627.778 128.841C629.241 128.841 630.486 128.537 631.512 127.929C632.538 127.321 633.507 126.457 634.419 125.336V112.226ZM641.458 91.649V134H637.155C636.224 134 635.635 133.572 635.388 132.717L634.789 129.896C633.611 131.245 632.253 132.337 630.714 133.173C629.194 134.01 627.417 134.428 625.384 134.428C623.788 134.428 622.325 134.095 620.995 133.43C619.665 132.765 618.516 131.805 617.547 130.551C616.597 129.278 615.856 127.711 615.324 125.849C614.811 123.987 614.554 121.859 614.554 119.465C614.554 117.299 614.849 115.285 615.438 113.423C616.027 111.561 616.872 109.946 617.974 108.578C619.076 107.21 620.397 106.146 621.936 105.386C623.475 104.607 625.204 104.217 627.123 104.217C628.757 104.217 630.153 104.474 631.312 104.987C632.471 105.5 633.507 106.193 634.419 107.067V91.649H641.458ZM672.013 134.456C669.467 134.456 667.51 133.743 666.142 132.318C664.793 130.874 664.119 128.889 664.119 126.362V110.031H661.126C660.746 110.031 660.423 109.908 660.157 109.661C659.891 109.414 659.758 109.043 659.758 108.549V105.756L664.461 104.987L665.943 97.007C666.038 96.627 666.218 96.3325 666.484 96.1235C666.75 95.9145 667.092 95.81 667.51 95.81H671.158V105.015H678.967V110.031H671.158V125.877C671.158 126.789 671.377 127.502 671.814 128.015C672.27 128.528 672.887 128.784 673.666 128.784C674.103 128.784 674.464 128.737 674.749 128.642C675.053 128.528 675.31 128.414 675.519 128.3C675.747 128.186 675.946 128.081 676.117 127.986C676.288 127.872 676.459 127.815 676.63 127.815C676.839 127.815 677.01 127.872 677.143 127.986C677.276 128.081 677.419 128.233 677.571 128.442L679.68 131.862C678.654 132.717 677.476 133.363 676.146 133.8C674.816 134.238 673.438 134.456 672.013 134.456ZM696.19 104.303C698.356 104.303 700.323 104.654 702.09 105.358C703.876 106.06 705.396 107.058 706.65 108.35C707.923 109.642 708.901 111.219 709.585 113.081C710.269 114.943 710.611 117.023 710.611 119.322C710.611 121.64 710.269 123.73 709.585 125.592C708.901 127.454 707.923 129.041 706.65 130.352C705.396 131.663 703.876 132.67 702.09 133.373C700.323 134.076 698.356 134.428 696.19 134.428C694.005 134.428 692.02 134.076 690.234 133.373C688.448 132.67 686.918 131.663 685.645 130.352C684.391 129.041 683.413 127.454 682.71 125.592C682.026 123.73 681.684 121.64 681.684 119.322C681.684 117.023 682.026 114.943 682.71 113.081C683.413 111.219 684.391 109.642 685.645 108.35C686.918 107.058 688.448 106.06 690.234 105.358C692.02 104.654 694.005 104.303 696.19 104.303ZM696.19 129.012C698.622 129.012 700.418 128.195 701.577 126.561C702.755 124.927 703.344 122.533 703.344 119.379C703.344 116.225 702.755 113.822 701.577 112.169C700.418 110.516 698.622 109.689 696.19 109.689C693.72 109.689 691.887 110.525 690.69 112.197C689.512 113.85 688.923 116.244 688.923 119.379C688.923 122.514 689.512 124.908 690.69 126.561C691.887 128.195 693.72 129.012 696.19 129.012ZM736.882 107.894C738.022 106.83 739.276 105.965 740.644 105.3C742.012 104.635 743.617 104.303 745.46 104.303C747.056 104.303 748.472 104.578 749.707 105.129C750.942 105.661 751.968 106.421 752.785 107.409C753.621 108.378 754.248 109.547 754.666 110.915C755.103 112.264 755.321 113.755 755.321 115.389V134H748.282V115.389C748.282 113.603 747.873 112.226 747.056 111.257C746.239 110.269 744.995 109.775 743.323 109.775C742.107 109.775 740.967 110.05 739.903 110.601C738.839 111.152 737.832 111.903 736.882 112.853V134H729.842V91.649H736.882V107.894ZM780.855 116.016C780.855 115.104 780.722 114.249 780.456 113.451C780.209 112.634 779.829 111.922 779.316 111.314C778.803 110.706 778.147 110.231 777.349 109.889C776.57 109.528 775.658 109.347 774.613 109.347C772.58 109.347 770.975 109.927 769.797 111.086C768.638 112.245 767.897 113.888 767.574 116.016H780.855ZM767.431 120.263C767.545 121.764 767.811 123.065 768.229 124.167C768.647 125.25 769.198 126.153 769.882 126.875C770.566 127.578 771.374 128.11 772.305 128.471C773.255 128.813 774.3 128.984 775.44 128.984C776.58 128.984 777.558 128.851 778.375 128.585C779.211 128.319 779.933 128.024 780.541 127.701C781.168 127.378 781.71 127.084 782.166 126.818C782.641 126.552 783.097 126.419 783.534 126.419C784.123 126.419 784.56 126.637 784.845 127.074L786.868 129.639C786.089 130.551 785.215 131.321 784.246 131.948C783.277 132.556 782.261 133.05 781.197 133.43C780.152 133.791 779.078 134.048 777.976 134.2C776.893 134.352 775.839 134.428 774.813 134.428C772.78 134.428 770.889 134.095 769.141 133.43C767.393 132.746 765.873 131.748 764.581 130.438C763.289 129.107 762.273 127.473 761.532 125.535C760.791 123.578 760.42 121.317 760.42 118.752C760.42 116.757 760.743 114.886 761.389 113.138C762.035 111.371 762.957 109.841 764.154 108.549C765.37 107.238 766.842 106.203 768.571 105.443C770.319 104.683 772.286 104.303 774.471 104.303C776.314 104.303 778.014 104.597 779.572 105.186C781.13 105.775 782.47 106.64 783.591 107.78C784.712 108.901 785.586 110.288 786.213 111.941C786.859 113.575 787.182 115.446 787.182 117.555C787.182 118.619 787.068 119.341 786.84 119.721C786.612 120.082 786.175 120.263 785.529 120.263H767.431ZM799.589 91.649V134H792.55V91.649H799.589ZM813.642 126.419C814.44 127.388 815.305 128.072 816.236 128.471C817.186 128.87 818.212 129.069 819.314 129.069C820.378 129.069 821.337 128.87 822.192 128.471C823.047 128.072 823.769 127.464 824.358 126.647C824.966 125.83 825.432 124.804 825.755 123.569C826.078 122.315 826.239 120.842 826.239 119.151C826.239 117.441 826.097 115.997 825.812 114.819C825.546 113.622 825.156 112.653 824.643 111.912C824.13 111.171 823.503 110.63 822.762 110.288C822.04 109.946 821.214 109.775 820.283 109.775C818.82 109.775 817.575 110.088 816.549 110.715C815.523 111.323 814.554 112.188 813.642 113.309V126.419ZM813.272 108.749C814.469 107.4 815.827 106.307 817.347 105.471C818.867 104.635 820.653 104.217 822.705 104.217C824.301 104.217 825.755 104.55 827.066 105.215C828.396 105.88 829.536 106.849 830.486 108.122C831.455 109.376 832.196 110.934 832.709 112.796C833.241 114.639 833.507 116.757 833.507 119.151C833.507 121.336 833.212 123.36 832.623 125.222C832.034 127.084 831.189 128.699 830.087 130.067C829.004 131.435 827.683 132.509 826.125 133.287C824.586 134.048 822.857 134.428 820.938 134.428C819.304 134.428 817.908 134.181 816.749 133.686C815.59 133.173 814.554 132.47 813.642 131.577V143.548H806.603V104.759H810.906C811.818 104.759 812.417 105.186 812.702 106.041L813.272 108.749ZM846.295 104.759V134H839.227V104.759H846.295ZM847.264 96.2375C847.264 96.8455 847.141 97.4155 846.894 97.9475C846.647 98.4795 846.314 98.945 845.896 99.344C845.497 99.743 845.022 100.066 844.471 100.313C843.92 100.541 843.331 100.655 842.704 100.655C842.096 100.655 841.517 100.541 840.966 100.313C840.434 100.066 839.968 99.743 839.569 99.344C839.17 98.945 838.847 98.4795 838.6 97.9475C838.372 97.4155 838.258 96.8455 838.258 96.2375C838.258 95.6105 838.372 95.0215 838.6 94.4705C838.847 93.9195 839.17 93.4445 839.569 93.0455C839.968 92.6465 840.434 92.333 840.966 92.105C841.517 91.858 842.096 91.7345 842.704 91.7345C843.331 91.7345 843.92 91.858 844.471 92.105C845.022 92.333 845.497 92.6465 845.896 93.0455C846.314 93.4445 846.647 93.9195 846.894 94.4705C847.141 95.0215 847.264 95.6105 847.264 96.2375ZM860.056 108.35C860.645 107.761 861.262 107.219 861.908 106.725C862.573 106.212 863.267 105.785 863.989 105.443C864.73 105.082 865.518 104.806 866.354 104.616C867.19 104.407 868.102 104.303 869.09 104.303C870.686 104.303 872.102 104.578 873.337 105.129C874.572 105.661 875.598 106.421 876.415 107.409C877.251 108.378 877.878 109.547 878.296 110.915C878.733 112.264 878.951 113.755 878.951 115.389V134H871.912V115.389C871.912 113.603 871.503 112.226 870.686 111.257C869.869 110.269 868.625 109.775 866.953 109.775C865.737 109.775 864.597 110.05 863.533 110.601C862.469 111.152 861.462 111.903 860.512 112.853V134H853.472V104.759H857.776C858.688 104.759 859.286 105.186 859.571 106.041L860.056 108.35ZM896.333 118.667C897.207 118.667 897.967 118.553 898.613 118.325C899.259 118.078 899.791 117.745 900.209 117.327C900.646 116.909 900.969 116.406 901.178 115.817C901.406 115.228 901.52 114.582 901.52 113.879C901.52 112.435 901.083 111.295 900.209 110.459C899.354 109.604 898.062 109.176 896.333 109.176C894.604 109.176 893.303 109.604 892.429 110.459C891.574 111.295 891.146 112.435 891.146 113.879C891.146 114.563 891.251 115.199 891.46 115.788C891.688 116.377 892.011 116.89 892.429 117.327C892.866 117.745 893.407 118.078 894.053 118.325C894.718 118.553 895.478 118.667 896.333 118.667ZM904.285 135.311C904.285 134.741 904.114 134.276 903.772 133.914C903.43 133.553 902.964 133.278 902.375 133.088C901.786 132.879 901.093 132.727 900.295 132.632C899.516 132.537 898.68 132.47 897.787 132.432C896.913 132.375 896.001 132.328 895.051 132.29C894.12 132.252 893.208 132.176 892.315 132.062C891.536 132.499 890.899 133.012 890.405 133.601C889.93 134.19 889.693 134.874 889.693 135.653C889.693 136.166 889.816 136.641 890.063 137.078C890.329 137.534 890.738 137.924 891.289 138.247C891.859 138.57 892.59 138.817 893.483 138.988C894.376 139.178 895.469 139.273 896.761 139.273C898.072 139.273 899.202 139.168 900.152 138.959C901.102 138.769 901.881 138.494 902.489 138.133C903.116 137.791 903.572 137.373 903.857 136.879C904.142 136.404 904.285 135.881 904.285 135.311ZM911.296 105.756V108.378C911.296 109.214 910.792 109.727 909.785 109.917L907.163 110.402C907.562 111.409 907.762 112.511 907.762 113.708C907.762 115.152 907.467 116.463 906.878 117.641C906.308 118.8 905.51 119.788 904.484 120.605C903.458 121.422 902.242 122.058 900.836 122.514C899.449 122.951 897.948 123.17 896.333 123.17C895.763 123.17 895.212 123.141 894.68 123.084C894.148 123.027 893.626 122.951 893.113 122.856C892.201 123.407 891.745 124.025 891.745 124.709C891.745 125.298 892.011 125.735 892.543 126.02C893.094 126.286 893.816 126.476 894.709 126.59C895.602 126.704 896.618 126.78 897.758 126.818C898.898 126.837 900.067 126.894 901.264 126.989C902.461 127.084 903.629 127.255 904.769 127.502C905.909 127.73 906.926 128.1 907.819 128.613C908.712 129.126 909.424 129.829 909.956 130.722C910.507 131.596 910.783 132.727 910.783 134.114C910.783 135.406 910.46 136.66 909.814 137.876C909.187 139.092 908.265 140.175 907.049 141.125C905.852 142.075 904.37 142.835 902.603 143.405C900.855 143.994 898.86 144.289 896.618 144.289C894.414 144.289 892.495 144.07 890.861 143.633C889.227 143.215 887.869 142.645 886.786 141.923C885.703 141.22 884.895 140.403 884.363 139.472C883.831 138.541 883.565 137.572 883.565 136.565C883.565 135.197 883.974 134.057 884.791 133.145C885.627 132.214 886.767 131.473 888.211 130.922C887.432 130.523 886.814 129.991 886.358 129.326C885.902 128.661 885.674 127.787 885.674 126.704C885.674 126.267 885.75 125.82 885.902 125.364C886.073 124.889 886.311 124.424 886.615 123.968C886.938 123.512 887.337 123.084 887.812 122.685C888.287 122.267 888.847 121.897 889.493 121.574C888.011 120.776 886.843 119.712 885.988 118.382C885.152 117.052 884.734 115.494 884.734 113.708C884.734 112.264 885.019 110.962 885.589 109.803C886.178 108.625 886.985 107.628 888.011 106.811C889.056 105.975 890.282 105.338 891.688 104.901C893.113 104.464 894.661 104.246 896.333 104.246C897.587 104.246 898.765 104.379 899.867 104.645C900.969 104.892 901.976 105.262 902.888 105.756H911.296ZM954.735 104.759L938.804 142.037C938.595 142.531 938.319 142.902 937.977 143.149C937.654 143.415 937.151 143.548 936.467 143.548H931.223L936.695 131.805L924.867 104.759H931.052C931.603 104.759 932.03 104.892 932.334 105.158C932.657 105.424 932.895 105.728 933.047 106.07L939.26 121.232C939.469 121.745 939.64 122.258 939.773 122.771C939.925 123.284 940.067 123.806 940.2 124.338C940.371 123.806 940.542 123.284 940.713 122.771C940.884 122.239 941.074 121.716 941.283 121.203L947.154 106.07C947.306 105.69 947.553 105.376 947.895 105.129C948.256 104.882 948.655 104.759 949.092 104.759H954.735ZM970.28 104.303C972.446 104.303 974.413 104.654 976.18 105.358C977.966 106.06 979.486 107.058 980.74 108.35C982.013 109.642 982.991 111.219 983.675 113.081C984.359 114.943 984.701 117.023 984.701 119.322C984.701 121.64 984.359 123.73 983.675 125.592C982.991 127.454 982.013 129.041 980.74 130.352C979.486 131.663 977.966 132.67 976.18 133.373C974.413 134.076 972.446 134.428 970.28 134.428C968.095 134.428 966.11 134.076 964.324 133.373C962.538 132.67 961.008 131.663 959.735 130.352C958.481 129.041 957.503 127.454 956.8 125.592C956.116 123.73 955.774 121.64 955.774 119.322C955.774 117.023 956.116 114.943 956.8 113.081C957.503 111.219 958.481 109.642 959.735 108.35C961.008 107.058 962.538 106.06 964.324 105.358C966.11 104.654 968.095 104.303 970.28 104.303ZM970.28 129.012C972.712 129.012 974.508 128.195 975.667 126.561C976.845 124.927 977.434 122.533 977.434 119.379C977.434 116.225 976.845 113.822 975.667 112.169C974.508 110.516 972.712 109.689 970.28 109.689C967.81 109.689 965.977 110.525 964.78 112.197C963.602 113.85 963.013 116.244 963.013 119.379C963.013 122.514 963.602 124.908 964.78 126.561C965.977 128.195 967.81 129.012 970.28 129.012ZM1015.27 104.759V134H1010.96C1010.03 134 1009.44 133.572 1009.2 132.717L1008.71 130.38C1007.51 131.596 1006.19 132.584 1004.75 133.344C1003.31 134.085 1001.6 134.456 999.648 134.456C998.052 134.456 996.636 134.19 995.401 133.658C994.185 133.107 993.159 132.337 992.323 131.349C991.487 130.361 990.851 129.193 990.414 127.844C989.996 126.476 989.787 124.975 989.787 123.341V104.759H996.826V123.341C996.826 125.127 997.235 126.514 998.052 127.502C998.888 128.471 1000.13 128.955 1001.79 128.955C1003 128.955 1004.14 128.689 1005.21 128.157C1006.27 127.606 1007.28 126.856 1008.23 125.906V104.759H1015.27ZM1053.95 110.459C1053.76 110.763 1053.56 110.981 1053.35 111.114C1053.14 111.228 1052.87 111.285 1052.55 111.285C1052.21 111.285 1051.84 111.19 1051.44 111C1051.06 110.81 1050.61 110.601 1050.1 110.373C1049.59 110.126 1049 109.908 1048.33 109.718C1047.69 109.528 1046.92 109.433 1046.02 109.433C1044.64 109.433 1043.54 109.727 1042.75 110.316C1041.97 110.905 1041.58 111.675 1041.58 112.625C1041.58 113.252 1041.78 113.784 1042.18 114.221C1042.59 114.639 1043.14 115.009 1043.8 115.332C1044.48 115.655 1045.25 115.95 1046.11 116.216C1046.96 116.463 1047.83 116.738 1048.7 117.042C1049.6 117.346 1050.47 117.698 1051.32 118.097C1052.18 118.477 1052.94 118.971 1053.6 119.579C1054.29 120.168 1054.83 120.88 1055.23 121.716C1055.65 122.552 1055.86 123.559 1055.86 124.737C1055.86 126.143 1055.6 127.445 1055.09 128.642C1054.59 129.82 1053.85 130.846 1052.86 131.72C1051.88 132.575 1050.65 133.249 1049.19 133.743C1047.74 134.219 1046.07 134.456 1044.17 134.456C1043.16 134.456 1042.18 134.361 1041.21 134.171C1040.26 134 1039.34 133.753 1038.44 133.43C1037.57 133.107 1036.75 132.727 1035.99 132.29C1035.25 131.853 1034.6 131.378 1034.03 130.865L1035.65 128.186C1035.86 127.863 1036.11 127.616 1036.39 127.445C1036.68 127.274 1037.04 127.188 1037.47 127.188C1037.91 127.188 1038.32 127.312 1038.7 127.559C1039.1 127.806 1039.55 128.072 1040.07 128.357C1040.58 128.642 1041.18 128.908 1041.86 129.155C1042.57 129.402 1043.45 129.525 1044.51 129.525C1045.35 129.525 1046.06 129.43 1046.65 129.24C1047.26 129.031 1047.75 128.765 1048.13 128.442C1048.53 128.119 1048.82 127.749 1048.99 127.331C1049.18 126.894 1049.27 126.447 1049.27 125.991C1049.27 125.307 1049.06 124.747 1048.65 124.31C1048.25 123.873 1047.71 123.493 1047.02 123.17C1046.36 122.847 1045.59 122.562 1044.71 122.315C1043.86 122.049 1042.97 121.764 1042.06 121.46C1041.17 121.156 1040.29 120.804 1039.41 120.405C1038.56 119.987 1037.79 119.465 1037.1 118.838C1036.44 118.211 1035.9 117.441 1035.48 116.529C1035.08 115.617 1034.88 114.515 1034.88 113.223C1034.88 112.026 1035.12 110.886 1035.59 109.803C1036.07 108.72 1036.76 107.78 1037.67 106.982C1038.6 106.165 1039.75 105.519 1041.12 105.044C1042.51 104.55 1044.1 104.303 1045.91 104.303C1047.92 104.303 1049.76 104.635 1051.41 105.3C1053.06 105.965 1054.44 106.839 1055.54 107.922L1053.95 110.459ZM1061.15 134V104.759H1065.46C1066.37 104.759 1066.97 105.186 1067.25 106.041L1067.71 108.207C1068.22 107.637 1068.75 107.115 1069.31 106.64C1069.88 106.165 1070.47 105.756 1071.1 105.414C1071.75 105.072 1072.43 104.806 1073.15 104.616C1073.89 104.407 1074.7 104.303 1075.58 104.303C1077.42 104.303 1078.93 104.806 1080.11 105.813C1081.3 106.801 1082.2 108.122 1082.79 109.775C1083.24 108.806 1083.81 107.979 1084.5 107.295C1085.18 106.592 1085.93 106.022 1086.75 105.585C1087.56 105.148 1088.43 104.825 1089.34 104.616C1090.27 104.407 1091.2 104.303 1092.13 104.303C1093.75 104.303 1095.18 104.55 1096.44 105.044C1097.69 105.538 1098.75 106.26 1099.6 107.21C1100.46 108.16 1101.1 109.319 1101.54 110.687C1102 112.055 1102.22 113.622 1102.22 115.389V134H1095.18V115.389C1095.18 113.527 1094.78 112.131 1093.96 111.2C1093.14 110.25 1091.94 109.775 1090.37 109.775C1089.65 109.775 1088.97 109.898 1088.34 110.145C1087.74 110.392 1087.19 110.753 1086.72 111.228C1086.26 111.684 1085.9 112.264 1085.64 112.967C1085.37 113.67 1085.24 114.477 1085.24 115.389V134H1078.17V115.389C1078.17 113.432 1077.77 112.007 1076.97 111.114C1076.19 110.221 1075.04 109.775 1073.52 109.775C1072.5 109.775 1071.54 110.031 1070.65 110.544C1069.77 111.038 1068.95 111.722 1068.19 112.596V134H1061.15ZM1116.21 104.759V134H1109.14V104.759H1116.21ZM1117.18 96.2375C1117.18 96.8455 1117.06 97.4155 1116.81 97.9475C1116.56 98.4795 1116.23 98.945 1115.81 99.344C1115.41 99.743 1114.94 100.066 1114.39 100.313C1113.84 100.541 1113.25 100.655 1112.62 100.655C1112.01 100.655 1111.43 100.541 1110.88 100.313C1110.35 100.066 1109.88 99.743 1109.48 99.344C1109.09 98.945 1108.76 98.4795 1108.52 97.9475C1108.29 97.4155 1108.17 96.8455 1108.17 96.2375C1108.17 95.6105 1108.29 95.0215 1108.52 94.4705C1108.76 93.9195 1109.09 93.4445 1109.48 93.0455C1109.88 92.6465 1110.35 92.333 1110.88 92.105C1111.43 91.858 1112.01 91.7345 1112.62 91.7345C1113.25 91.7345 1113.84 91.858 1114.39 92.105C1114.94 92.333 1115.41 92.6465 1115.81 93.0455C1116.23 93.4445 1116.56 93.9195 1116.81 94.4705C1117.06 95.0215 1117.18 95.6105 1117.18 96.2375ZM1130.51 91.649V134H1123.47V91.649H1130.51ZM1156.36 116.016C1156.36 115.104 1156.23 114.249 1155.97 113.451C1155.72 112.634 1155.34 111.922 1154.83 111.314C1154.31 110.706 1153.66 110.231 1152.86 109.889C1152.08 109.528 1151.17 109.347 1150.12 109.347C1148.09 109.347 1146.48 109.927 1145.31 111.086C1144.15 112.245 1143.41 113.888 1143.08 116.016H1156.36ZM1142.94 120.263C1143.05 121.764 1143.32 123.065 1143.74 124.167C1144.16 125.25 1144.71 126.153 1145.39 126.875C1146.08 127.578 1146.88 128.11 1147.81 128.471C1148.76 128.813 1149.81 128.984 1150.95 128.984C1152.09 128.984 1153.07 128.851 1153.88 128.585C1154.72 128.319 1155.44 128.024 1156.05 127.701C1156.68 127.378 1157.22 127.084 1157.68 126.818C1158.15 126.552 1158.61 126.419 1159.04 126.419C1159.63 126.419 1160.07 126.637 1160.35 127.074L1162.38 129.639C1161.6 130.551 1160.72 131.321 1159.76 131.948C1158.79 132.556 1157.77 133.05 1156.71 133.43C1155.66 133.791 1154.59 134.048 1153.49 134.2C1152.4 134.352 1151.35 134.428 1150.32 134.428C1148.29 134.428 1146.4 134.095 1144.65 133.43C1142.9 132.746 1141.38 131.748 1140.09 130.438C1138.8 129.107 1137.78 127.473 1137.04 125.535C1136.3 123.578 1135.93 121.317 1135.93 118.752C1135.93 116.757 1136.25 114.886 1136.9 113.138C1137.54 111.371 1138.47 109.841 1139.66 108.549C1140.88 107.238 1142.35 106.203 1144.08 105.443C1145.83 104.683 1147.8 104.303 1149.98 104.303C1151.82 104.303 1153.52 104.597 1155.08 105.186C1156.64 105.775 1157.98 106.64 1159.1 107.78C1160.22 108.901 1161.1 110.288 1161.72 111.941C1162.37 113.575 1162.69 115.446 1162.69 117.555C1162.69 118.619 1162.58 119.341 1162.35 119.721C1162.12 120.082 1161.68 120.263 1161.04 120.263H1142.94ZM1197.28 121.517C1195.25 121.612 1193.54 121.792 1192.15 122.058C1190.76 122.305 1189.65 122.628 1188.82 123.027C1187.98 123.426 1187.38 123.892 1187.02 124.424C1186.66 124.956 1186.48 125.535 1186.48 126.162C1186.48 127.397 1186.84 128.281 1187.56 128.813C1188.3 129.345 1189.26 129.611 1190.44 129.611C1191.89 129.611 1193.13 129.354 1194.17 128.841C1195.24 128.309 1196.27 127.511 1197.28 126.447V121.517ZM1181.15 108.834C1184.51 105.756 1188.56 104.217 1193.29 104.217C1195 104.217 1196.53 104.502 1197.88 105.072C1199.23 105.623 1200.37 106.402 1201.3 107.409C1202.23 108.397 1202.93 109.585 1203.41 110.972C1203.9 112.359 1204.15 113.879 1204.15 115.532V134H1200.96C1200.29 134 1199.78 133.905 1199.42 133.715C1199.06 133.506 1198.77 133.097 1198.56 132.489L1197.94 130.38C1197.2 131.045 1196.47 131.634 1195.77 132.147C1195.07 132.641 1194.34 133.059 1193.58 133.401C1192.82 133.743 1192 134 1191.13 134.171C1190.27 134.361 1189.32 134.456 1188.28 134.456C1187.04 134.456 1185.9 134.295 1184.86 133.971C1183.81 133.629 1182.91 133.126 1182.15 132.461C1181.39 131.796 1180.8 130.969 1180.38 129.981C1179.96 128.993 1179.75 127.844 1179.75 126.533C1179.75 125.792 1179.88 125.06 1180.12 124.338C1180.37 123.597 1180.77 122.894 1181.32 122.229C1181.89 121.564 1182.62 120.937 1183.52 120.348C1184.41 119.759 1185.5 119.246 1186.79 118.809C1188.1 118.372 1189.62 118.021 1191.35 117.755C1193.08 117.47 1195.06 117.299 1197.28 117.242V115.532C1197.28 113.575 1196.86 112.131 1196.03 111.2C1195.19 110.25 1193.98 109.775 1192.41 109.775C1191.27 109.775 1190.32 109.908 1189.56 110.174C1188.82 110.44 1188.16 110.744 1187.59 111.086C1187.02 111.409 1186.5 111.703 1186.02 111.969C1185.57 112.235 1185.05 112.368 1184.48 112.368C1183.99 112.368 1183.57 112.245 1183.23 111.998C1182.89 111.732 1182.61 111.428 1182.4 111.086L1181.15 108.834ZM1221.47 118.667C1222.34 118.667 1223.1 118.553 1223.75 118.325C1224.39 118.078 1224.93 117.745 1225.34 117.327C1225.78 116.909 1226.1 116.406 1226.31 115.817C1226.54 115.228 1226.65 114.582 1226.65 113.879C1226.65 112.435 1226.22 111.295 1225.34 110.459C1224.49 109.604 1223.2 109.176 1221.47 109.176C1219.74 109.176 1218.44 109.604 1217.56 110.459C1216.71 111.295 1216.28 112.435 1216.28 113.879C1216.28 114.563 1216.38 115.199 1216.59 115.788C1216.82 116.377 1217.14 116.89 1217.56 117.327C1218 117.745 1218.54 118.078 1219.19 118.325C1219.85 118.553 1220.61 118.667 1221.47 118.667ZM1229.42 135.311C1229.42 134.741 1229.25 134.276 1228.91 133.914C1228.56 133.553 1228.1 133.278 1227.51 133.088C1226.92 132.879 1226.23 132.727 1225.43 132.632C1224.65 132.537 1223.81 132.47 1222.92 132.432C1222.05 132.375 1221.13 132.328 1220.18 132.29C1219.25 132.252 1218.34 132.176 1217.45 132.062C1216.67 132.499 1216.03 133.012 1215.54 133.601C1215.06 134.19 1214.83 134.874 1214.83 135.653C1214.83 136.166 1214.95 136.641 1215.2 137.078C1215.46 137.534 1215.87 137.924 1216.42 138.247C1216.99 138.57 1217.72 138.817 1218.62 138.988C1219.51 139.178 1220.6 139.273 1221.89 139.273C1223.21 139.273 1224.34 139.168 1225.29 138.959C1226.24 138.769 1227.02 138.494 1227.62 138.133C1228.25 137.791 1228.71 137.373 1228.99 136.879C1229.28 136.404 1229.42 135.881 1229.42 135.311ZM1236.43 105.756V108.378C1236.43 109.214 1235.93 109.727 1234.92 109.917L1232.3 110.402C1232.7 111.409 1232.9 112.511 1232.9 113.708C1232.9 115.152 1232.6 116.463 1232.01 117.641C1231.44 118.8 1230.64 119.788 1229.62 120.605C1228.59 121.422 1227.38 122.058 1225.97 122.514C1224.58 122.951 1223.08 123.17 1221.47 123.17C1220.9 123.17 1220.35 123.141 1219.81 123.084C1219.28 123.027 1218.76 122.951 1218.25 122.856C1217.33 123.407 1216.88 124.025 1216.88 124.709C1216.88 125.298 1217.14 125.735 1217.68 126.02C1218.23 126.286 1218.95 126.476 1219.84 126.59C1220.74 126.704 1221.75 126.78 1222.89 126.818C1224.03 126.837 1225.2 126.894 1226.4 126.989C1227.59 127.084 1228.76 127.255 1229.9 127.502C1231.04 127.73 1232.06 128.1 1232.95 128.613C1233.85 129.126 1234.56 129.829 1235.09 130.722C1235.64 131.596 1235.92 132.727 1235.92 134.114C1235.92 135.406 1235.59 136.66 1234.95 137.876C1234.32 139.092 1233.4 140.175 1232.18 141.125C1230.99 142.075 1229.5 142.835 1227.74 143.405C1225.99 143.994 1223.99 144.289 1221.75 144.289C1219.55 144.289 1217.63 144.07 1216 143.633C1214.36 143.215 1213 142.645 1211.92 141.923C1210.84 141.22 1210.03 140.403 1209.5 139.472C1208.97 138.541 1208.7 137.572 1208.7 136.565C1208.7 135.197 1209.11 134.057 1209.92 133.145C1210.76 132.214 1211.9 131.473 1213.34 130.922C1212.57 130.523 1211.95 129.991 1211.49 129.326C1211.04 128.661 1210.81 127.787 1210.81 126.704C1210.81 126.267 1210.88 125.82 1211.04 125.364C1211.21 124.889 1211.44 124.424 1211.75 123.968C1212.07 123.512 1212.47 123.084 1212.95 122.685C1213.42 122.267 1213.98 121.897 1214.63 121.574C1213.15 120.776 1211.98 119.712 1211.12 118.382C1210.29 117.052 1209.87 115.494 1209.87 113.708C1209.87 112.264 1210.15 110.962 1210.72 109.803C1211.31 108.625 1212.12 107.628 1213.15 106.811C1214.19 105.975 1215.42 105.338 1216.82 104.901C1218.25 104.464 1219.8 104.246 1221.47 104.246C1222.72 104.246 1223.9 104.379 1225 104.645C1226.1 104.892 1227.11 105.262 1228.02 105.756H1236.43ZM1256.34 121.517C1254.31 121.612 1252.6 121.792 1251.21 122.058C1249.82 122.305 1248.71 122.628 1247.88 123.027C1247.04 123.426 1246.44 123.892 1246.08 124.424C1245.72 124.956 1245.54 125.535 1245.54 126.162C1245.54 127.397 1245.9 128.281 1246.62 128.813C1247.36 129.345 1248.32 129.611 1249.5 129.611C1250.94 129.611 1252.19 129.354 1253.23 128.841C1254.3 128.309 1255.33 127.511 1256.34 126.447V121.517ZM1240.21 108.834C1243.57 105.756 1247.62 104.217 1252.35 104.217C1254.06 104.217 1255.59 104.502 1256.94 105.072C1258.29 105.623 1259.43 106.402 1260.36 107.409C1261.29 108.397 1261.99 109.585 1262.47 110.972C1262.96 112.359 1263.21 113.879 1263.21 115.532V134H1260.02C1259.35 134 1258.84 133.905 1258.48 133.715C1258.12 133.506 1257.83 133.097 1257.62 132.489L1257 130.38C1256.26 131.045 1255.53 131.634 1254.83 132.147C1254.13 132.641 1253.4 133.059 1252.64 133.401C1251.88 133.743 1251.06 134 1250.18 134.171C1249.33 134.361 1248.38 134.456 1247.33 134.456C1246.1 134.456 1244.96 134.295 1243.91 133.971C1242.87 133.629 1241.97 133.126 1241.21 132.461C1240.45 131.796 1239.86 130.969 1239.44 129.981C1239.02 128.993 1238.81 127.844 1238.81 126.533C1238.81 125.792 1238.94 125.06 1239.18 124.338C1239.43 123.597 1239.83 122.894 1240.38 122.229C1240.95 121.564 1241.68 120.937 1242.58 120.348C1243.47 119.759 1244.56 119.246 1245.85 118.809C1247.16 118.372 1248.68 118.021 1250.41 117.755C1252.14 117.47 1254.12 117.299 1256.34 117.242V115.532C1256.34 113.575 1255.92 112.131 1255.09 111.2C1254.25 110.25 1253.04 109.775 1251.47 109.775C1250.33 109.775 1249.38 109.908 1248.62 110.174C1247.88 110.44 1247.22 110.744 1246.65 111.086C1246.08 111.409 1245.56 111.703 1245.08 111.969C1244.63 112.235 1244.11 112.368 1243.54 112.368C1243.05 112.368 1242.63 112.245 1242.29 111.998C1241.95 111.732 1241.67 111.428 1241.46 111.086L1240.21 108.834ZM1277.14 104.759V134H1270.07V104.759H1277.14ZM1278.1 96.2375C1278.1 96.8455 1277.98 97.4155 1277.73 97.9475C1277.49 98.4795 1277.15 98.945 1276.74 99.344C1276.34 99.743 1275.86 100.066 1275.31 100.313C1274.76 100.541 1274.17 100.655 1273.54 100.655C1272.94 100.655 1272.36 100.541 1271.81 100.313C1271.27 100.066 1270.81 99.743 1270.41 99.344C1270.01 98.945 1269.69 98.4795 1269.44 97.9475C1269.21 97.4155 1269.1 96.8455 1269.1 96.2375C1269.1 95.6105 1269.21 95.0215 1269.44 94.4705C1269.69 93.9195 1270.01 93.4445 1270.41 93.0455C1270.81 92.6465 1271.27 92.333 1271.81 92.105C1272.36 91.858 1272.94 91.7345 1273.54 91.7345C1274.17 91.7345 1274.76 91.858 1275.31 92.105C1275.86 92.333 1276.34 92.6465 1276.74 93.0455C1277.15 93.4445 1277.49 93.9195 1277.73 94.4705C1277.98 95.0215 1278.1 95.6105 1278.1 96.2375ZM1290.9 108.35C1291.48 107.761 1292.1 107.219 1292.75 106.725C1293.41 106.212 1294.11 105.785 1294.83 105.443C1295.57 105.082 1296.36 104.806 1297.19 104.616C1298.03 104.407 1298.94 104.303 1299.93 104.303C1301.53 104.303 1302.94 104.578 1304.18 105.129C1305.41 105.661 1306.44 106.421 1307.25 107.409C1308.09 108.378 1308.72 109.547 1309.14 110.915C1309.57 112.264 1309.79 113.755 1309.79 115.389V134H1302.75V115.389C1302.75 113.603 1302.34 112.226 1301.53 111.257C1300.71 110.269 1299.46 109.775 1297.79 109.775C1296.58 109.775 1295.44 110.05 1294.37 110.601C1293.31 111.152 1292.3 111.903 1291.35 112.853V134H1284.31V104.759H1288.62C1289.53 104.759 1290.13 105.186 1290.41 106.041L1290.9 108.35Z" fill="#F2F2F2"/>
<circle cx="345" cy="184" r="12" fill="#F16F04"/>
</g>
<defs>
<clipPath id="clip0_226_930">
<rect width="1512" height="232" fill="white"/>
</clipPath>
</defs>
</svg>
