<svg width="40" height="40" viewBox="0 0 40 40" fill="none" xmlns="http://www.w3.org/2000/svg">
<path d="M14.7116 3.28491C10.429 3.28491 6.94727 6.78347 6.94727 11.0869C6.94727 15.3081 10.2328 18.7245 14.5155 18.8724C14.6462 18.8559 14.777 18.8559 14.8751 18.8724C14.9078 18.8724 14.9241 18.8724 14.9568 18.8724C14.9731 18.8724 14.9731 18.8724 14.9895 18.8724C19.1741 18.7245 22.4596 15.3081 22.476 11.0869C22.476 6.78347 18.9943 3.28491 14.7116 3.28491Z" fill="#233BA9"/>
<path d="M23.0154 23.2415C18.4549 20.1864 11.0175 20.1864 6.42426 23.2415C4.34832 24.6376 3.2041 26.5265 3.2041 28.5468C3.2041 30.5671 4.34832 32.4396 6.40792 33.8193C8.69635 35.3633 11.704 36.1352 14.7117 36.1352C17.7193 36.1352 20.727 35.3633 23.0154 33.8193C25.075 32.4232 26.2193 30.5507 26.2193 28.514C26.2029 26.4937 25.075 24.6212 23.0154 23.2415Z" fill="#233BA9"/>
<path d="M32.6759 12.056C32.9374 15.2424 30.6817 18.0347 27.5596 18.4125C27.5433 18.4125 27.5433 18.4125 27.5269 18.4125H27.4779C27.3798 18.4125 27.2817 18.4125 27.2 18.4453C25.6144 18.5275 24.1596 18.0183 23.0645 17.0821C24.7481 15.5709 25.7125 13.3043 25.5164 10.8405C25.4019 9.51007 24.9442 8.29461 24.2577 7.25983C24.8789 6.94775 25.5981 6.75065 26.3337 6.68495C29.5375 6.40572 32.398 8.80379 32.6759 12.056Z" fill="#233BA9"/>
<path d="M35.945 27.2493C35.8142 28.8425 34.8007 30.2222 33.1008 31.1585C31.4662 32.0619 29.4066 32.4889 27.3633 32.4396C28.5402 31.372 29.2268 30.0416 29.3575 28.629C29.521 26.5923 28.5566 24.6377 26.6277 23.0773C25.5326 22.2068 24.2576 21.5169 22.8682 21.0077C26.4806 19.9565 31.0248 20.6628 33.82 22.9295C35.3238 24.1449 36.0921 25.6725 35.945 27.2493Z" fill="#233BA9"/>
<path d="M32.3077 25.8293C28.7756 25.8293 25.8975 28.7215 25.8975 32.2706C25.8975 35.8197 28.7756 38.7118 32.3077 38.7118C35.8397 38.7118 38.7178 35.8197 38.7178 32.2706C38.7178 28.7215 35.8397 25.8293 32.3077 25.8293ZM35.3717 30.7891L31.7371 34.4413C31.6474 34.5314 31.5256 34.583 31.3974 34.583C31.2692 34.583 31.1474 34.5314 31.0577 34.4413L29.2436 32.6184C29.0577 32.4316 29.0577 32.1224 29.2436 31.9356C29.4295 31.7488 29.7372 31.7488 29.9231 31.9356L31.3974 33.4171L34.6922 30.1063C34.8781 29.9195 35.1858 29.9195 35.3717 30.1063C35.5576 30.2931 35.5576 30.5959 35.3717 30.7891Z" fill="#3CC13B"/>
</svg>
