<svg width="18" height="18" viewBox="0 0 18 18" fill="none" xmlns="http://www.w3.org/2000/svg">
<path d="M7.85916 1.5124C8.21916 0.407198 9.78276 0.407198 10.1416 1.5124L11.4256 5.4628C11.504 5.70338 11.6565 5.91301 11.8612 6.06172C12.066 6.21043 12.3125 6.29061 12.5656 6.2908H16.72C17.8828 6.2908 18.3652 7.7788 17.4256 8.4628L14.0656 10.9036C13.8604 11.0524 13.7076 11.2624 13.6292 11.5034C13.5507 11.7444 13.5506 12.0041 13.6288 12.2452L14.9128 16.1956C15.2728 17.3008 14.0068 18.2212 13.0648 17.5372L9.70476 15.0964C9.49981 14.9476 9.25303 14.8675 8.99976 14.8675C8.74649 14.8675 8.49971 14.9476 8.29476 15.0964L4.93476 17.5372C3.99396 18.2212 2.72916 17.3008 3.08796 16.1956L4.37196 12.2452C4.45017 12.0041 4.45003 11.7444 4.37156 11.5034C4.29309 11.2624 4.14032 11.0524 3.93516 10.9036L0.57636 8.464C-0.36324 7.78 0.12036 6.292 1.28196 6.292H5.43516C5.68842 6.29207 5.9352 6.212 6.14019 6.06328C6.34517 5.91455 6.49785 5.70478 6.57636 5.464L7.86036 1.5136L7.85916 1.5124Z" fill="#F3C717"/>
</svg>
